<?xml version="1.0" standalone="no"?>
<!DOCTYPE svg PUBLIC "-//W3C//DTD SVG 20010904//EN"
 "http://www.w3.org/TR/2001/REC-SVG-20010904/DTD/svg10.dtd">
<svg version="1.0" xmlns="http://www.w3.org/2000/svg"
 width="216.000000pt" height="233.000000pt" viewBox="0 0 216.000000 233.000000"
 preserveAspectRatio="xMidYMid meet">

<g transform="translate(0.000000,233.000000) scale(0.100000,-0.100000)"
fill="#000000" stroke="none">
<path d="M1028 1728 c-9 -7 -18 -25 -22 -41 -5 -22 1 -35 34 -71 41 -44 52
-76 25 -76 -8 0 -15 6 -15 14 0 19 -14 28 -33 20 -12 -4 -13 -11 -5 -34 24
-71 132 -37 114 36 -4 13 -22 38 -41 56 -36 32 -46 68 -20 68 8 0 15 -7 15
-15 0 -8 9 -15 20 -15 15 0 20 7 20 25 0 39 -58 60 -92 33z"/>
<path d="M1160 1620 c0 -120 0 -121 23 -118 19 3 22 9 24 51 2 55 5 62 29 53
12 -5 15 -16 12 -51 -3 -43 4 -55 33 -55 5 0 9 54 9 120 0 113 -1 120 -20 120
-17 0 -20 -7 -20 -45 0 -32 -5 -47 -15 -52 -23 -8 -29 3 -30 50 0 36 -3 42
-22 45 -23 3 -23 2 -23 -118z"/>
<path d="M1350 1720 c-17 -17 -20 -33 -20 -100 0 -67 3 -83 20 -100 29 -29 74
-26 99 6 35 45 27 180 -13 206 -21 14 -66 8 -86 -12z m70 -106 c0 -67 -2 -74
-20 -74 -18 0 -20 7 -20 78 0 83 5 99 27 81 9 -8 13 -36 13 -85z"/>
<path d="M1504 1727 c-2 -7 -3 -60 -2 -116 l3 -104 47 -1 c28 0 50 4 52 11 6
16 -3 23 -31 23 -20 0 -23 5 -23 35 0 28 4 35 20 35 11 0 20 7 20 15 0 8 -9
15 -20 15 -16 0 -20 7 -20 30 0 25 4 30 25 30 18 0 25 5 25 20 0 17 -7 20 -45
20 -29 0 -48 -5 -51 -13z"/>
<path d="M1646 1724 c-28 -28 -20 -76 19 -114 19 -19 35 -42 35 -52 0 -25 -21
-23 -27 2 -8 29 -38 21 -38 -10 0 -16 9 -29 28 -40 24 -13 30 -13 55 0 45 26
42 70 -7 122 -23 23 -41 45 -41 49 0 18 22 20 34 3 17 -22 48 -12 39 13 -14
42 -68 57 -97 27z"/>
<path d="M456 1532 c-59 -116 -83 -246 -53 -284 6 -8 62 -32 122 -53 203 -68
289 -104 390 -160 55 -30 118 -61 140 -67 54 -16 269 -15 377 1 106 16 141 37
136 85 -4 44 -67 73 -216 98 -64 11 -124 26 -132 33 -9 8 -63 82 -120 166 -58
84 -117 166 -131 182 l-26 31 -79 -29 c-109 -40 -165 -39 -273 8 -47 21 -90
37 -98 37 -7 0 -24 -22 -37 -48z"/>
<path d="M1101 1438 c1 -24 3 -35 6 -25 2 9 9 17 15 17 6 0 5 6 -3 16 -10 13
-10 17 2 25 11 7 11 9 -3 9 -15 0 -18 -8 -17 -42z"/>
<path d="M1147 1474 c-12 -13 -7 -72 6 -77 24 -9 39 9 35 44 -3 32 -24 49 -41
33z m20 -51 c-3 -10 -5 -2 -5 17 0 19 2 27 5 18 2 -10 2 -26 0 -35z"/>
<path d="M1203 1440 c-1 -40 12 -55 20 -22 4 16 5 16 6 0 2 -35 18 -17 17 20
-1 29 -5 38 -22 40 -17 2 -20 -3 -21 -38z m32 21 c3 -5 1 -12 -5 -16 -5 -3
-10 1 -10 9 0 18 6 21 15 7z"/>
<path d="M1270 1340 c0 -133 1 -140 20 -140 18 0 20 7 20 74 0 41 4 77 8 80 5
3 14 -31 21 -74 11 -65 17 -80 31 -80 19 0 25 16 36 98 10 82 24 72 24 -17 0
-74 2 -81 20 -81 19 0 20 7 20 140 l0 140 -33 0 -33 0 -13 -75 c-8 -41 -17
-72 -21 -70 -4 3 -11 26 -15 52 -13 90 -14 93 -51 93 l-34 0 0 -140z"/>
<path d="M1520 1340 l0 -140 60 0 c53 0 60 2 60 20 0 16 -7 20 -30 20 -29 0
-30 2 -30 45 0 41 2 45 24 45 19 0 23 4 19 20 -3 11 -13 20 -23 20 -19 0 -29
23 -22 53 2 11 13 17 33 17 22 0 29 5 29 20 0 18 -7 20 -60 20 l-60 0 0 -140z"/>
<path d="M1670 1340 l0 -140 25 0 c23 0 24 3 27 73 l3 72 28 -72 c22 -55 33
-73 48 -73 18 0 19 9 19 140 l0 140 -25 0 c-23 0 -24 -4 -27 -62 l-3 -63 -25
63 c-20 50 -29 62 -47 62 -23 0 -23 -1 -23 -140z"/>
<path d="M361 1214 c-6 -22 -14 -56 -17 -76 l-7 -38 59 -26 c32 -14 100 -37
152 -51 l94 -25 40 32 39 32 41 -17 c23 -9 82 -42 132 -74 125 -81 142 -85
336 -85 218 0 329 24 345 75 9 29 1 33 -32 16 -68 -34 -290 -54 -426 -38 -91
11 -98 13 -302 127 -33 18 -136 58 -230 89 -93 31 -180 66 -192 77 l-21 20
-11 -38z"/>
<path d="M0 410 l0 -240 1080 0 1080 0 0 240 0 240 -1080 0 -1080 0 0 -240z"/>
<path d="M521 73 c1 -23 3 -29 6 -15 5 23 23 31 23 10 0 -6 3 -8 7 -5 3 4 -3
16 -15 27 l-22 21 1 -38z"/>
<path d="M1268 103 c7 -3 16 -2 19 1 4 3 -2 6 -13 5 -11 0 -14 -3 -6 -6z"/>
<path d="M1358 103 c6 -2 18 -2 25 0 6 3 1 5 -13 5 -14 0 -19 -2 -12 -5z"/>
<path d="M1405 100 c-4 -6 -1 -17 5 -25 6 -8 9 -19 5 -25 -3 -5 -4 -10 -1 -10
3 0 10 9 16 20 8 15 8 20 -1 18 -6 -2 -14 3 -17 11 -3 10 0 12 12 8 10 -4 15
-3 11 3 -8 13 -22 13 -30 0z"/>
<path d="M1460 106 c0 -2 7 -7 16 -10 8 -3 12 -2 9 4 -6 10 -25 14 -25 6z"/>
<path d="M1519 108 c-6 -20 -1 -68 6 -68 7 0 9 15 7 35 -3 29 -9 44 -13 33z"/>
<path d="M1569 108 c-6 -20 -1 -68 6 -68 7 0 9 15 7 35 -3 29 -9 44 -13 33z"/>
<path d="M1607 103 c-4 -3 -7 -11 -7 -17 0 -6 4 -5 9 3 10 16 31 6 31 -14 0
-20 -21 -30 -31 -14 -6 9 -9 10 -9 2 0 -18 20 -27 33 -14 7 7 14 7 24 -1 10
-8 17 -8 26 1 9 10 8 11 -4 6 -20 -8 -31 7 -23 30 4 10 13 14 23 10 12 -5 13
-4 4 6 -10 9 -15 10 -27 0 -10 -8 -16 -9 -21 -1 -7 12 -19 13 -28 3z"/>
<path d="M620 90 c0 -5 5 -10 11 -10 5 0 7 5 4 10 -3 6 -8 10 -11 10 -2 0 -4
-4 -4 -10z"/>
<path d="M574 65 c1 -28 30 -25 34 3 2 19 1 19 -4 2 -7 -25 -21 -26 -27 -2 -3
13 -4 12 -3 -3z"/>
<path d="M658 83 c7 -3 16 -2 19 1 4 3 -2 6 -13 5 -11 0 -14 -3 -6 -6z"/>
<path d="M694 75 c-7 -17 3 -35 19 -34 9 0 9 2 0 6 -7 2 -13 11 -13 19 0 9 5
12 10 9 6 -3 10 -1 10 4 0 16 -20 13 -26 -4z"/>
<path d="M740 70 c0 -11 2 -20 4 -20 2 0 6 9 9 20 3 11 1 20 -4 20 -5 0 -9 -9
-9 -20z"/>
<path d="M770 79 c0 -5 5 -7 10 -4 6 3 10 8 10 11 0 2 -4 4 -10 4 -5 0 -10 -5
-10 -11z"/>
<path d="M863 84 c19 -6 23 -29 7 -37 -6 -3 -5 -4 2 -3 21 4 15 40 -7 43 -16
1 -16 1 -2 -3z"/>
<path d="M940 72 c0 -12 3 -12 15 -2 8 7 15 13 15 15 0 1 -7 2 -15 2 -8 0 -15
-7 -15 -15z"/>
<path d="M1014 75 c-7 -17 3 -35 19 -34 9 0 9 2 0 6 -7 2 -13 11 -13 18 0 7 6
16 13 18 9 4 9 6 -1 6 -7 1 -15 -6 -18 -14z"/>
<path d="M1060 86 c0 -2 7 -6 15 -10 8 -3 15 -1 15 4 0 6 -7 10 -15 10 -8 0
-15 -2 -15 -4z"/>
<path d="M1104 78 c-3 -5 -3 -12 0 -15 3 -4 6 -1 6 5 0 22 20 12 21 -10 1 -21
2 -21 6 -3 3 11 10 23 15 26 6 4 -2 7 -16 7 -15 0 -29 -5 -32 -10z"/>
<path d="M1275 79 c-4 -6 -5 -12 -2 -15 2 -3 7 2 10 11 7 17 1 20 -8 4z"/>
<path d="M1370 69 c-7 -11 -10 -23 -7 -25 2 -2 9 7 15 21 14 30 7 33 -8 4z"/>
<path d="M1470 60 c-6 -11 -8 -20 -6 -20 3 0 10 9 16 20 6 11 8 20 6 20 -3 0
-10 -9 -16 -20z"/>
<path d="M620 61 c0 -6 4 -13 10 -16 6 -3 7 1 4 9 -7 18 -14 21 -14 7z"/>
<path d="M1050 63 c0 -19 21 -27 33 -13 9 10 9 11 -2 5 -8 -4 -17 -2 -22 6 -6
9 -9 10 -9 2z"/>
<path d="M1300 63 c0 -19 21 -27 33 -13 9 10 9 11 -2 5 -8 -4 -17 -2 -22 6 -6
9 -9 10 -9 2z"/>
<path d="M490 50 c-9 -6 -10 -10 -3 -10 6 0 15 5 18 10 8 12 4 12 -15 0z"/>
<path d="M780 50 c-9 -6 -10 -10 -3 -10 6 0 15 5 18 10 8 12 4 12 -15 0z"/>
</g>
</svg>
