<?xml version="1.0" standalone="yes"?>
<svg xmlns="http://www.w3.org/2000/svg" width="850" height="638">
<path style="fill:#fbfafa; stroke:none;" d="M0 0L0 638L850 638L850 0L0 0z"/>
<path style="fill:#fca648; stroke:none;" d="M414 31L414 32L437 32L414 31M399 32L399 33L402 33L399 32z"/>
<path style="fill:#8e3dae; stroke:none;" d="M144 265L148 262C147.13 257.65 150.456 261.271 153 258C156.04 254.091 169.778 239.945 174 241C177.203 234.116 192.788 221.309 200 219L199 216L205 216C205.755 209.601 220.257 200.954 226 199L235 191C239.345 191.42 250.046 185.476 251 181L256 182L256 181L253 182L266 174C268.899 174.509 273.478 174.322 274 171L277 172C287.193 164.934 304.105 151.883 317 152C321.16 147.832 327.242 146.442 333 146L340 140L340 139L348 138L348 136L377 128L402 116L403 116L402 119L404 116L416 116L431 110L437 112L436 109L444 107L453 106C453 100.53 469.654 107.398 472 101L477 100L476 104L479 101L488 102L486 98L519 99C520.22 91.6783 529.967 99.1628 531 94L536 92L539 92L545 92L544 94L545 94L556 93C556 90.5643 556.786 91.385 559 92L559 90C562.178 91.2462 577.462 94.0531 578 91L581 92C584.309 90.0214 586.777 91.2335 590 93C590 90.5642 590.786 91.385 593 92L593 90L599 92C594.358 82.4998 579.802 76.2814 571 71C542.07 53.6425 509.292 41.4749 476 35.9197C361.484 16.8116 243.537 66.4736 181.576 166C167.934 187.914 157.552 211.36 149.975 236C147.343 244.56 142.509 256.042 144 265z"/>
<path style="fill:#fca648; stroke:none;" d="M449 32L449 33L452 33L449 32M389 33L389 34L392 34L389 33M459 33L459 34L462 34L459 33M382.667 34.3333L383.333 34.6667L382.667 34.3333M467.667 34.3333L468.333 34.6667L467.667 34.3333M376 35L377 36L376 35M473.667 35.3333L474.333 35.6667L473.667 35.3333M370.667 36.3333L371.333 36.6667L370.667 36.3333M479.667 36.3333L480.333 36.6667L479.667 36.3333M365.667 37.3333L366.333 37.6667L365.667 37.3333M484 37L485 38L484 37M361 38L362 39L361 38M489 38L490 39L489 38M357 39L358 40L357 39M493 39L494 40L493 39M353 40L354 41L353 40M497 40L498 41L497 40M349 41L350 42L349 41M501 41L502 42L501 41M345 42L346 43L345 42M504 42L505 43L504 42M342 43L343 44L342 43M508 43L509 44L508 43M339 44L340 45L339 44M511 44L512 45L511 44M335 45L336 46L335 45M514 45L515 46L514 45M332 46L333 47L332 46M517 46L518 47L517 46M330 47L331 48L330 47M520 47L521 48L520 47M327 48L328 49L327 48M523 48L524 49L523 48M324 49L325 50L324 49M525 49L526 50L525 49M528 50L529 51L528 50M319 51L320 52L319 51M531 51L532 52L531 51M533 52L534 53L533 52M314 53L315 54L314 53M312 54L313 55L312 54M538 54L539 55L538 54M309 55L310 56L309 55M540 55L541 56L540 55M307 56L308 57L307 56M305 57L306 58L305 57M545 57L546 58L545 57M547 58L548 59L547 58M549 59L550 60L549 59M551 60L552 61L551 60M553 61L554 62L553 61M555 62L556 63L555 62M557 63L558 64L557 63M559 64L560 65L559 64M289 65L290 66L289 65M561 65L562 66L561 65M287 66L288 67L287 66M285 67L286 68L285 67M566 68L567 69L566 68M568 69L569 70L568 69M280 70L281 71L280 70M570 70L571 71L570 70M278 71L279 72L278 71z"/>
<path style="fill:#dc4367; stroke:none;" d="M571 71L572 72L571 71z"/>
<path style="fill:#fca648; stroke:none;" d="M573 72L574 73L573 72M275 73L276 74L275 73M576 74L577 75L576 74M578 75L579 76L578 75M270 76L271 77L270 76M581 77L582 78L581 77M267 78L268 79L267 78M584 79L585 80L584 79M264 80L265 81L264 80M587 81L588 82L587 81M261 82L262 83L261 82M590 83L591 84L590 83M258 84L259 85L258 84z"/>
<path style="fill:#dc4367; stroke:none;" d="M591 84L592 85L591 84z"/>
<path style="fill:#fca648; stroke:none;" d="M593 85L594 86L593 85M594 86L595 87L594 86M254 87L255 88L254 87z"/>
<path style="fill:#bb34a1; stroke:none;" d="M572 88L573 89L572 88z"/>
<path style="fill:#fca648; stroke:none;" d="M597 88L598 89L597 88M598 89L599 90L598 89M250 90L251 91L250 90z"/>
<path style="fill:#bb34a1; stroke:none;" d="M529.333 90.6667L529.667 91.3333L529.333 90.6667M559 90L559 92C556.832 91.284 555.969 90.7062 556 93L544 94L545 92L544 92L539 92L536 92L531 94L519 99L517 97L486 98L488 102L479 101L476 104L477 100L472 101L453 106L444 107L436 109L437 112L431 110L416 116L404 116L404 119L402 119L403 116L402 116L377 128L348 136L348 138L340 139L340 140L342 141L333 146L317 150L317 151C367.808 144.158 417.64 143.727 469 144.985C512.735 146.057 556.832 148.694 582.771 190C602.021 220.656 601.758 265.013 599 300L603 300L603 304L604 304L604 299L605 299C606.691 305.003 615.44 313.528 622 312L624 319L626 318C627.398 321.657 629.165 322.563 633 323L633 326C636.566 325.664 640.121 323.638 641 328L647 331L641 332C640.639 328.755 639.151 328.758 636 329L636 328L638 328L638 327C634.622 327.739 635.551 329.341 637 332L640 331L644 339C647.196 338.95 650.093 342.124 651 338L654 346L659 344L655 348L655 349L662 350L663 350L664 356C668.042 356.93 670.674 359.824 671 364L673 363L672 366L675 365L676 366L676 368L673 368L673 369L677 368L674 371L674 372C678.409 371.027 680.539 372.374 679 377L683 381L686 382L685 385L688 388L686 387L686 388L690 388L688 391L690 393L694 399L699 404L700 404L702 385C707.774 383.311 707.755 371.242 708.588 366C711.84 345.541 712.008 325.583 712 305C711.976 242.584 683.344 176.026 642.042 130C628.331 114.721 613.183 95.9016 593 90L593 92C590.832 91.284 589.969 90.7062 590 93C587.083 91.0073 583.755 88.9998 581 92L578 91L559 90z"/>
<path style="fill:#dc4367; stroke:none;" d="M599 90L600 91L599 90z"/>
<path style="fill:#bb34a1; stroke:none;" d="M524 91L525 92L524 91M526.667 91.3333L527.333 91.6667L526.667 91.3333M533 91L533 94L534 94L533 91z"/>
<path style="fill:#8e3dae; stroke:none;" d="M600 91L602 93L600 91z"/>
<path style="fill:#fca648; stroke:none;" d="M601 91L602 92L601 91z"/>
<path style="fill:#bb34a1; stroke:none;" d="M514 92L515 93L514 92M517 94L517 95L517 96L523 93L517 94z"/>
<path style="fill:#8e3dae; stroke:none;" d="M561 92L562 93L561 92M568 92L569 93L568 92M585 92L586 93L585 92z"/>
<path style="fill:#fca648; stroke:none;" d="M602 92L603 93L602 92M246 93L247 94L246 93z"/>
<path style="fill:#bb34a1; stroke:none;" d="M525.667 93.3333L526.333 93.6667L525.667 93.3333z"/>
<path style="fill:#dc4367; stroke:none;" d="M603 93L604 94L603 93z"/>
<path style="fill:#fca648; stroke:none;" d="M245 94L246 95L245 94z"/>
<path style="fill:#bb34a1; stroke:none;" d="M505 94L504 96L505 94M514.333 94.6667L514.667 95.3333L514.333 94.6667M522 94L523 95L522 94M510 95L511 96L510 95z"/>
<path style="fill:#fca648; stroke:none;" d="M606 95L607 96L606 95z"/>
<path style="fill:#bb34a1; stroke:none;" d="M502 96L503 97L502 96z"/>
<path style="fill:#fca648; stroke:none;" d="M607 96L608 97L607 96M241 97L242 98L241 97z"/>
<path style="fill:#8e3dae; stroke:none;" d="M520 97L521 98L520 97z"/>
<path style="fill:#dc4367; stroke:none;" d="M608 97L609 98L608 97z"/>
<path style="fill:#fca648; stroke:none;" d="M240 98L241 99L240 98z"/>
<path style="fill:#bb34a1; stroke:none;" d="M483 98L482 99L483 102L486 102L486 99L483 98z"/>
<path style="fill:#dc4367; stroke:none;" d="M609 98L610 99L609 98z"/>
<path style="fill:#fca648; stroke:none;" d="M239 99L240 100L239 99z"/>
<path style="fill:#bb34a1; stroke:none;" d="M467 100L466 102L467 100z"/>
<path style="fill:#8e3dae; stroke:none;" d="M490.333 100.667L490.667 101.333L490.333 100.667M494 100L495 101L494 100z"/>
<path style="fill:#fca648; stroke:none;" d="M612 100L613 101L612 100M613 101L614 102L613 101M614 102L615 103L614 102M234 103L235 104L234 103z"/>
<path style="fill:#dc4367; stroke:none;" d="M615 103L616 104L615 103z"/>
<path style="fill:#fca648; stroke:none;" d="M233 104L234 105L233 104z"/>
<path style="fill:#dc4367; stroke:none;" d="M616 104L617 105L616 104z"/>
<path style="fill:#fca648; stroke:none;" d="M232 105L233 106L232 105z"/>
<path style="fill:#bb34a1; stroke:none;" d="M446.667 105.333L447.333 105.667L446.667 105.333z"/>
<path style="fill:#fca648; stroke:none;" d="M231 106L232 107L231 106M230 107L231 108L230 107z"/>
<path style="fill:#8e3dae; stroke:none;" d="M449 109L452 107L449 109M453 109L456 107L453 109M457 107L457 109L459 107L457 107z"/>
<path style="fill:#fca648; stroke:none;" d="M622 109L623 110L622 109z"/>
<path style="fill:#bb34a1; stroke:none;" d="M433 110L434 111L433 110z"/>
<path style="fill:#8e3dae; stroke:none;" d="M447 110L448 111L447 110z"/>
<path style="fill:#fca648; stroke:none;" d="M623 110L624 111L623 110z"/>
<path style="fill:#8e3dae; stroke:none;" d="M445 111L446 112L445 111z"/>
<path style="fill:#fca648; stroke:none;" d="M624 111L625 112L624 111M625 112L626 113L625 112M626 113L627 114L626 113M627 114L628 115L627 114z"/>
<path style="fill:#8e3dae; stroke:none;" d="M417 115L418 116L417 115z"/>
<path style="fill:#fca648; stroke:none;" d="M628 115L629 116L628 115M629 116L630 117L629 116M630 117L631 118L630 117M631 118L632 119L631 118M632 119L633 120L632 119M633 120L634 121L633 120M634 121L635 122L634 121M635 122L636 123L635 122M213 124L214 125L213 124M212 125L213 126L212 125M211 126L212 127L211 126M210 127L211 128L210 127z"/>
<path style="fill:#dc4367; stroke:none;" d="M639 127L640 128L639 127z"/>
<path style="fill:#bb34a1; stroke:none;" d="M372.667 128.333L373.333 128.667L372.667 128.333z"/>
<path style="fill:#dc4367; stroke:none;" d="M640 128L641 129L640 128z"/>
<path style="fill:#fca648; stroke:none;" d="M641 129L642 130L641 129M642 130L643 131L642 130M643 131L644 132L643 131M205 133L206 134L205 133M204 134L205 135L204 134z"/>
<path style="fill:#bb34a1; stroke:none;" d="M351 134L352 135L351 134z"/>
<path style="fill:#dc4367; stroke:none;" d="M646 135L647 136L646 135z"/>
<path style="fill:#fca648; stroke:none;" d="M647 136L648 137L647 136M648 137L649 138L648 137M200 139L201 140L200 139z"/>
<path style="fill:#bb34a1; stroke:none;" d="M337 139L335 142L339 142L339 141L337 139z"/>
<path style="fill:#fca648; stroke:none;" d="M199 140L200 141L199 140z"/>
<path style="fill:#8e3dae; stroke:none;" d="M343 140L343 142L345 142L345 140L343 140M346 140L347 141L346 140z"/>
<path style="fill:#dc4367; stroke:none;" d="M650 140L651 141L650 140z"/>
<path style="fill:#fca648; stroke:none;" d="M651 141L652 142L651 141z"/>
<path style="fill:#bb34a1; stroke:none;" d="M331 142L332 143L331 142z"/>
<path style="fill:#fca648; stroke:none;" d="M652 142L653 143L652 142M197 143L198 144L197 143M196 144L197 145L196 144z"/>
<path style="fill:#dc4367; stroke:none;" d="M386 144L386 145L464 145L440 144L386 144M352 145L352 146L356 146L352 145z"/>
<path style="fill:#fca648; stroke:none;" d="M356 145L356 146L364 146L356 145z"/>
<path style="fill:#fbfafa; stroke:none;" d="M364 145.424C329.997 149.889 299.675 150.522 275.3 179C242.195 217.679 251 279.762 251 327C251 350.384 249.371 374.81 252.424 398C255.355 420.254 260.112 441.55 275.289 459C313.979 503.485 383.154 493 436 493C461.501 493 487.728 494.231 513 490.572C523.618 489.034 534.3 486.423 544 481.742C613.939 447.991 598 358.063 598 294C598 257.102 601.599 216.885 579.279 185C545.298 136.459 477.706 145 426 145C405.76 145 384.065 142.79 364 145.424z"/>
<path style="fill:#fca648; stroke:none;" d="M485 145L485 146L493 146L485 145z"/>
<path style="fill:#dc4367; stroke:none;" d="M493 145L493 146L499 146L493 145M654 145L655 146L654 145M340.667 146.333L341.333 146.667L340.667 146.333z"/>
<path style="fill:#fca648; stroke:none;" d="M342 146L342 147L345 147L342 146M505 146L505 147L508 147L505 146z"/>
<path style="fill:#dc4367; stroke:none;" d="M508.667 146.333L509.333 146.667L508.667 146.333z"/>
<path style="fill:#fca648; stroke:none;" d="M655 146L656 147L655 146M194 147L195 148L194 147z"/>
<path style="fill:#dc4367; stroke:none;" d="M333 147L334 148L333 147z"/>
<path style="fill:#fca648; stroke:none;" d="M334 147L334 148L337 148L334 147M513 147L513 148L516 148L513 147z"/>
<path style="fill:#dc4367; stroke:none;" d="M516 147L517 148L516 147z"/>
<path style="fill:#fca648; stroke:none;" d="M193 148L194 149L193 148z"/>
<path style="fill:#dc4367; stroke:none;" d="M328 148L329 149L328 148z"/>
<path style="fill:#fca648; stroke:none;" d="M329 148L330 149L329 148M519.667 148.333L520.333 148.667L519.667 148.333z"/>
<path style="fill:#dc4367; stroke:none;" d="M521 148L522 149L521 148M656 148L657 149L656 148z"/>
<path style="fill:#fca648; stroke:none;" d="M324.667 149.333L325.333 149.667L324.667 149.333M524.667 149.333L525.333 149.667L524.667 149.333M657 149L658 150L657 149z"/>
<path style="fill:#dc4367; stroke:none;" d="M320 150L321 151L320 150z"/>
<path style="fill:#fca648; stroke:none;" d="M321 150L322 151L321 150M528 150L529 151L528 150z"/>
<path style="fill:#dc4367; stroke:none;" d="M529 150L530 151L529 150z"/>
<path style="fill:#fca648; stroke:none;" d="M658 150L659 151L658 150M191 151L192 152L191 151z"/>
<path style="fill:#bb34a1; stroke:none;" d="M314 151L312 152L312 153L314 151z"/>
<path style="fill:#fca648; stroke:none;" d="M317 151L318 152L317 151M532 151L533 152L532 151M314 152L315 153L314 152M535 152L536 153L535 152z"/>
<path style="fill:#dc4367; stroke:none;" d="M659 152L660 153L659 152z"/>
<path style="fill:#bb34a1; stroke:none;" d="M310 153L311 154L310 153z"/>
<path style="fill:#fca648; stroke:none;" d="M311 153L312 154L311 153M537 153L538 154L537 153z"/>
<path style="fill:#dc4367; stroke:none;" d="M538 153L539 154L538 153z"/>
<path style="fill:#fca648; stroke:none;" d="M660 153L661 154L660 153z"/>
<path style="fill:#bb34a1; stroke:none;" d="M308 154L309 155L308 154z"/>
<path style="fill:#fca648; stroke:none;" d="M309 154L310 155L309 154M540 154L541 155L540 154z"/>
<path style="fill:#dc4367; stroke:none;" d="M541 154L542 155L541 154z"/>
<path style="fill:#fca648; stroke:none;" d="M661 154L662 155L661 154M188 155L189 156L188 155z"/>
<path style="fill:#bb34a1; stroke:none;" d="M305 155L306 156L305 155z"/>
<path style="fill:#dc4367; stroke:none;" d="M306 155L307 156L306 155z"/>
<path style="fill:#fca648; stroke:none;" d="M542 155L543 156L542 155z"/>
<path style="fill:#dc4367; stroke:none;" d="M543 155L544 156L543 155z"/>
<path style="fill:#bb34a1; stroke:none;" d="M296 161L304 157L296 161z"/>
<path style="fill:#fca648; stroke:none;" d="M304 156L305 157L304 156z"/>
<path style="fill:#dc4367; stroke:none;" d="M545 156L546 157L545 156z"/>
<path style="fill:#fca648; stroke:none;" d="M662 156L663 157L662 156M302 157L303 158L302 157z"/>
<path style="fill:#dc4367; stroke:none;" d="M547 157L548 158L547 157z"/>
<path style="fill:#fca648; stroke:none;" d="M663 157L664 158L663 157M186 158L187 159L186 158z"/>
<path style="fill:#dc4367; stroke:none;" d="M300 158L301 159L300 158M549 158L550 159L549 158M298 159L299 160L298 159M551 159L552 160L551 159z"/>
<path style="fill:#fca648; stroke:none;" d="M664 159L665 160L664 159M297 160L298 161L297 160M552 160L553 161L552 160M184 161L185 162L184 161z"/>
<path style="fill:#bb34a1; stroke:none;" d="M294 161L295 162L294 161z"/>
<path style="fill:#fca648; stroke:none;" d="M295 161L296 162L295 161M554 161L555 162L554 161z"/>
<path style="fill:#bb34a1; stroke:none;" d="M292 162L291 164L292 162z"/>
<path style="fill:#dc4367; stroke:none;" d="M293 162L294 163L293 162M556 162L557 163L556 162z"/>
<path style="fill:#fca648; stroke:none;" d="M666 162L667 163L666 162M292 163L293 164L292 163M557 163L558 164L557 163M182 164L183 165L182 164M558 164L559 165L558 164z"/>
<path style="fill:#dc4367; stroke:none;" d="M667 164L668 165L667 164z"/>
<path style="fill:#bb34a1; stroke:none;" d="M288 165L277 172L274 171C274 174.13 268.726 174.215 266 174L253 182L256 181L256 182L251 181C248.437 185.304 239.969 190.547 235 191L226 199C219.91 200.232 205.25 209.387 205 216L199 216L200 219C193.12 220.335 175.93 234.245 174 241C168.43 241.2 148.762 256.323 148 262L143 264L139 335L153 326C157.054 325.866 159.417 323.263 163.015 321.584C170.643 318.025 182.243 316.651 187 309L188 309L189 309L189 311L215 303C223.359 296.413 242.837 300.461 248.973 292.296C252.093 288.144 249.759 278.066 250.424 273C253.127 252.416 250.857 232.247 257.344 212C261.131 200.181 266.731 189.615 274.616 180C278.297 175.511 286.581 170.498 288 165z"/>
<path style="fill:#dc4367; stroke:none;" d="M289 165L290 166L289 165M560 165L561 166L560 165z"/>
<path style="fill:#fca648; stroke:none;" d="M668 165L669 166L668 165M181 166L182 167L181 166M288 166L289 167L288 166M561 166L562 167L561 166M287 167L288 168L287 167M562 167L563 168L562 167z"/>
<path style="fill:#dc4367; stroke:none;" d="M669 167L670 168L669 167z"/>
<path style="fill:#fca648; stroke:none;" d="M670 168L671 169L670 168M179 169L180 170L179 169z"/>
<path style="fill:#dc4367; stroke:none;" d="M284 169L285 170L284 169M565 169L566 170L565 169z"/>
<path style="fill:#fca648; stroke:none;" d="M283 170L284 171L283 170z"/>
<path style="fill:#dc4367; stroke:none;" d="M566 170L567 171L566 170z"/>
<path style="fill:#fca648; stroke:none;" d="M671 170L672 171L671 170M282 171L283 172L282 171z"/>
<path style="fill:#dc4367; stroke:none;" d="M567 171L568 172L567 171z"/>
<path style="fill:#fca648; stroke:none;" d="M281 172L282 173L281 172z"/>
<path style="fill:#dc4367; stroke:none;" d="M568 172L569 173L568 172M672 172L673 173L672 172z"/>
<path style="fill:#fca648; stroke:none;" d="M280 173L281 174L280 173z"/>
<path style="fill:#dc4367; stroke:none;" d="M569 173L570 174L569 173z"/>
<path style="fill:#fca648; stroke:none;" d="M673 173L674 174L673 173M176 174L177 175L176 174M279 174L280 175L279 174z"/>
<path style="fill:#dc4367; stroke:none;" d="M570 174L571 175L570 174z"/>
<path style="fill:#fca648; stroke:none;" d="M278 175L279 176L278 175z"/>
<path style="fill:#dc4367; stroke:none;" d="M571 175L572 176L571 175z"/>
<path style="fill:#fca648; stroke:none;" d="M674 175L675 176L674 175M175 176L176 177L175 176z"/>
<path style="fill:#bb34a1; stroke:none;" d="M261 176L262 177L261 176z"/>
<path style="fill:#fca648; stroke:none;" d="M277 176L278 177L277 176M359 176L359 177L369 177L359 176z"/>
<path style="fill:#dc4367; stroke:none;" d="M369 176L369 177L377 177L369 176z"/>
<path style="fill:#bb34a1; stroke:none;" d="M283 288L299 288L324 284L335 286L337 283C345.274 284.08 355.246 262.038 361.09 256.039C376.047 240.686 396.758 231.199 418 229.17C440.368 227.032 463.682 235.063 481 249.095C487.971 254.743 497.63 271.585 506 273L505 278L512 278L511 276L512 276L514 280L515 280L513 275L516 278L517 278L521 278L518 278L518 281L527 281L527 278L520 280L520 279L525 273L531 279L537 276L537 279L544 277L537 280L537 281L540 280L540 282L554 280L555 283L552 283L552 284L554 285L558 283L558 282L556 280L565 284L565 287L567 287C565.024 256.311 571.648 218.917 546.911 195.174C531.775 180.646 509.192 177.001 489 177C449.675 176.997 410.341 176.021 371 176.985C346.667 177.582 320.554 177.523 302.039 196.039C278.81 219.27 283 257.956 283 288z"/>
<path style="fill:#dc4367; stroke:none;" d="M471 176L471 177L481 177L471 176z"/>
<path style="fill:#fca648; stroke:none;" d="M481 176L481 177L491 177L481 176z"/>
<path style="fill:#dc4367; stroke:none;" d="M572 176L573 177L572 176M276 177L277 178L276 177z"/>
<path style="fill:#fca648; stroke:none;" d="M344 177L344 178L348 178L344 177z"/>
<path style="fill:#dc4367; stroke:none;" d="M348 177L348 178L351 178L348 177M499 177L499 178L502 178L499 177z"/>
<path style="fill:#fca648; stroke:none;" d="M502 177L502 178L506 178L502 177z"/>
<path style="fill:#dc4367; stroke:none;" d="M573 177L574 178L573 177M675 177L676 178L675 177M275 178L276 179L275 178z"/>
<path style="fill:#fca648; stroke:none;" d="M337 178L337 179L340 179L337 178z"/>
<path style="fill:#dc4367; stroke:none;" d="M340 178L341 179L340 178M509 178L510 179L509 178z"/>
<path style="fill:#fca648; stroke:none;" d="M510 178L510 179L513 179L510 178z"/>
<path style="fill:#dc4367; stroke:none;" d="M574 178L575 179L574 178z"/>
<path style="fill:#8e3dae; stroke:none;" d="M260.667 179.333L261.333 179.667L260.667 179.333z"/>
<path style="fill:#fca648; stroke:none;" d="M333 179L334 180L333 179z"/>
<path style="fill:#dc4367; stroke:none;" d="M334 179L335 180L334 179M514.667 179.333L515.333 179.667L514.667 179.333z"/>
<path style="fill:#fca648; stroke:none;" d="M516 179L517 180L516 179z"/>
<path style="fill:#dc4367; stroke:none;" d="M676 179L677 180L676 179z"/>
<path style="fill:#fca648; stroke:none;" d="M329 180L330 181L329 180z"/>
<path style="fill:#dc4367; stroke:none;" d="M330 180L331 181L330 180M519 180L520 181L519 180z"/>
<path style="fill:#fca648; stroke:none;" d="M520 180L521 181L520 180M677 180L678 181L677 180M172 181L173 182L172 181z"/>
<path style="fill:#8e3dae; stroke:none;" d="M257 181L258 182L257 181z"/>
<path style="fill:#fca648; stroke:none;" d="M273 181L274 182L273 181M325.667 181.333L326.333 181.667L325.667 181.333z"/>
<path style="fill:#dc4367; stroke:none;" d="M522 181L523 182L522 181z"/>
<path style="fill:#fca648; stroke:none;" d="M523 181L524 182L523 181M576 181L577 182L576 181M272 182L273 183L272 182M323 182L324 183L323 182z"/>
<path style="fill:#dc4367; stroke:none;" d="M525 182L526 183L525 182z"/>
<path style="fill:#fca648; stroke:none;" d="M526 182L527 183L526 182M577 182L578 183L577 182M678 182L679 183L678 182M171 183L172 184L171 183z"/>
<path style="fill:#dc4367; stroke:none;" d="M271 183L272 184L271 183z"/>
<path style="fill:#fca648; stroke:none;" d="M320 183L321 184L320 183z"/>
<path style="fill:#dc4367; stroke:none;" d="M321 183L322 184L321 183M528 183L529 184L528 183z"/>
<path style="fill:#fca648; stroke:none;" d="M529 183L530 184L529 183z"/>
<path style="fill:#dc4367; stroke:none;" d="M578 183L579 184L578 183z"/>
<path style="fill:#fca648; stroke:none;" d="M318 184L319 185L318 184M531 184L532 185L531 184M679 184L680 185L679 184M170 185L171 186L170 185M270 185L271 186L270 185M316 185L317 186L316 185M533 185L534 186L533 185M579 185L580 186L579 185M269 186L270 187L269 186M314 186L315 187L314 186M535 186L536 187L535 186z"/>
<path style="fill:#dc4367; stroke:none;" d="M580 186L581 187L580 186z"/>
<path style="fill:#fca648; stroke:none;" d="M680 186L681 187L680 186M169 187L170 188L169 187M312 187L313 188L312 187z"/>
<path style="fill:#dc4367; stroke:none;" d="M536 187L537 188L536 187z"/>
<path style="fill:#fca648; stroke:none;" d="M537 187L538 188L537 187z"/>
<path style="fill:#dc4367; stroke:none;" d="M581 187L582 188L581 187z"/>
<path style="fill:#fca648; stroke:none;" d="M268 188L269 189L268 188z"/>
<path style="fill:#dc4367; stroke:none;" d="M311 188L312 189L311 188M538 188L539 189L538 188z"/>
<path style="fill:#fca648; stroke:none;" d="M581 188L582 189L581 188M681 188L682 189L681 188M168 189L169 190L168 189M267 189L268 190L267 189M309 189L310 190L309 189z"/>
<path style="fill:#dc4367; stroke:none;" d="M539 189L540 190L539 189z"/>
<path style="fill:#fca648; stroke:none;" d="M540 189L541 190L540 189z"/>
<path style="fill:#dc4367; stroke:none;" d="M582 189L583 190L582 189z"/>
<path style="fill:#fca648; stroke:none;" d="M308 190L309 191L308 190M541 190L542 191L541 190M682 190L683 191L682 190M167 191L168 192L167 191M266 191L267 192L266 191z"/>
<path style="fill:#dc4367; stroke:none;" d="M307 191L308 192L307 191M542 191L543 192L542 191z"/>
<path style="fill:#fca648; stroke:none;" d="M583 191L584 192L583 191z"/>
<path style="fill:#dc4367; stroke:none;" d="M265 192L266 193L265 192M543 192L544 193L543 192M584 192L585 193L584 192z"/>
<path style="fill:#fca648; stroke:none;" d="M683 192L684 193L683 192M166 193L167 194L166 193M304 193L305 194L304 193M584 193L585 194L584 193z"/>
<path style="fill:#dc4367; stroke:none;" d="M264 194L265 195L264 194z"/>
<path style="fill:#fca648; stroke:none;" d="M303 194L304 195L303 194M546 194L547 195L546 194z"/>
<path style="fill:#dc4367; stroke:none;" d="M585 194L586 195L585 194z"/>
<path style="fill:#fca648; stroke:none;" d="M684 194L685 195L684 194M165 195L166 196L165 195M302 195L303 196L302 195M547 195L548 196L547 195M585 195L586 196L585 195z"/>
<path style="fill:#dc4367; stroke:none;" d="M263 196L264 197L263 196z"/>
<path style="fill:#fca648; stroke:none;" d="M301 196L302 197L301 196M548 196L549 197L548 196z"/>
<path style="fill:#dc4367; stroke:none;" d="M586 196L587 197L586 196z"/>
<path style="fill:#fca648; stroke:none;" d="M685 196L686 197L685 196M164 197L165 198L164 197M300 197L301 198L300 197M549 197L550 198L549 197M586 197L587 198L586 197z"/>
<path style="fill:#dc4367; stroke:none;" d="M262 198L263 199L262 198z"/>
<path style="fill:#fca648; stroke:none;" d="M299 198L300 199L299 198z"/>
<path style="fill:#dc4367; stroke:none;" d="M587 198L588 199L587 198z"/>
<path style="fill:#fca648; stroke:none;" d="M686 198L687 199L686 198M163 199L164 200L163 199z"/>
<path style="fill:#dc4367; stroke:none;" d="M550 199L551 200L550 199z"/>
<path style="fill:#fca648; stroke:none;" d="M587 199L588 200L587 199z"/>
<path style="fill:#dc4367; stroke:none;" d="M261 200L262 201L261 200M551 200L552 201L551 200M588 200L589 201L588 200z"/>
<path style="fill:#fca648; stroke:none;" d="M687 200L688 201L687 200M162 201L163 202L162 201M261 201L262 202L261 201z"/>
<path style="fill:#dc4367; stroke:none;" d="M297 201L298 202L297 201M552 201L553 202L552 201z"/>
<path style="fill:#fca648; stroke:none;" d="M588 201L589 202L588 201z"/>
<path style="fill:#dc4367; stroke:none;" d="M687 201L688 202L687 201z"/>
<path style="fill:#fca648; stroke:none;" d="M296 202L297 203L296 202M553 202L554 203L553 202M260 203L261 204L260 203M295 203L296 204L295 203M589 203L590 204L589 203z"/>
<path style="fill:#dc4367; stroke:none;" d="M688 203L689 204L688 203z"/>
<path style="fill:#fca648; stroke:none;" d="M161 204L162 205L161 204z"/>
<path style="fill:#dc4367; stroke:none;" d="M554 204L555 205L554 204M259 205L260 206L259 205M294 205L295 206L294 205M512.667 205.333L513.333 205.667L512.667 205.333z"/>
<path style="fill:#fca648; stroke:none;" d="M514 205L514 206L517 206L514 205z"/>
<path style="fill:#fbfafa; stroke:none;" d="M517 205.599C489.895 206.813 492.119 248.49 519 246.787C545.129 245.132 543.159 204.427 517 205.599z"/>
<path style="fill:#fca648; stroke:none;" d="M519 205L519 206L522 206L519 205z"/>
<path style="fill:#dc4367; stroke:none;" d="M522.667 205.333L523.333 205.667L522.667 205.333z"/>
<path style="fill:#fca648; stroke:none;" d="M555 205L556 206L555 205z"/>
<path style="fill:#dc4367; stroke:none;" d="M590 205L591 206L590 205z"/>
<path style="fill:#fca648; stroke:none;" d="M689 205L690 206L689 205M160 206L161 207L160 206M259 206L260 207L259 206M293 206L294 207L293 206z"/>
<path style="fill:#dc4367; stroke:none;" d="M509 206L510 207L509 206z"/>
<path style="fill:#fca648; stroke:none;" d="M510 206L511 207L510 206M524 206L525 207L524 206z"/>
<path style="fill:#dc4367; stroke:none;" d="M525 206L526 207L525 206z"/>
<path style="fill:#fca648; stroke:none;" d="M590 206L591 207L590 206z"/>
<path style="fill:#dc4367; stroke:none;" d="M293 207L294 208L293 207M507 207L508 208L507 207z"/>
<path style="fill:#fca648; stroke:none;" d="M508 207L509 208L508 207z"/>
<path style="fill:#dc4367; stroke:none;" d="M527 207L528 208L527 207M556 207L557 208L556 207z"/>
<path style="fill:#fca648; stroke:none;" d="M690 207L691 208L690 207M159 208L160 209L159 208z"/>
<path style="fill:#dc4367; stroke:none;" d="M258 208L259 209L258 208z"/>
<path style="fill:#fca648; stroke:none;" d="M292 208L293 209L292 208M506 208L507 209L506 208M528 208L529 209L528 208z"/>
<path style="fill:#dc4367; stroke:none;" d="M529 208L530 209L529 208z"/>
<path style="fill:#fca648; stroke:none;" d="M557 208L558 209L557 208z"/>
<path style="fill:#dc4367; stroke:none;" d="M591 208L592 209L591 208M690 208L691 209L690 208z"/>
<path style="fill:#fca648; stroke:none;" d="M258 209L259 210L258 209z"/>
<path style="fill:#dc4367; stroke:none;" d="M504 209L505 210L504 209z"/>
<path style="fill:#fca648; stroke:none;" d="M530 209L531 210L530 209z"/>
<path style="fill:#dc4367; stroke:none;" d="M557 209L558 210L557 209z"/>
<path style="fill:#fca648; stroke:none;" d="M591 209L592 210L591 209M691 209L692 210L691 209M291 210L292 211L291 210z"/>
<path style="fill:#dc4367; stroke:none;" d="M503 210L504 211L503 210z"/>
<path style="fill:#fca648; stroke:none;" d="M531 210L532 211L531 210M558 210L559 211L558 210z"/>
<path style="fill:#dc4367; stroke:none;" d="M691 210L692 211L691 210z"/>
<path style="fill:#fca648; stroke:none;" d="M158 211L159 212L158 211M257.333 211.667L257.667 212.333L257.333 211.667z"/>
<path style="fill:#dc4367; stroke:none;" d="M502 211L503 212L502 211z"/>
<path style="fill:#fca648; stroke:none;" d="M532 211L533 212L532 211z"/>
<path style="fill:#dc4367; stroke:none;" d="M558 211L559 212L558 211M592 211L593 212L592 211z"/>
<path style="fill:#fca648; stroke:none;" d="M290 212L291 213L290 212z"/>
<path style="fill:#dc4367; stroke:none;" d="M501 212L502 213L501 212z"/>
<path style="fill:#fca648; stroke:none;" d="M533 212L534 213L533 212M559 212L560 213L559 212M592 212L593 213L592 212M692 212L693 213L692 212M157 213L158 214L157 213z"/>
<path style="fill:#dc4367; stroke:none;" d="M500 213L501 214L500 213z"/>
<path style="fill:#fca648; stroke:none;" d="M534 213L535 214L534 213z"/>
<path style="fill:#dc4367; stroke:none;" d="M559 213L560 214L559 213M692 213L693 214L692 213M256 214L257 215L256 214z"/>
<path style="fill:#fca648; stroke:none;" d="M289 214L290 215L289 214M500 214L501 215L500 214z"/>
<path style="fill:#dc4367; stroke:none;" d="M535 214L536 215L535 214M593 214L594 215L593 214z"/>
<path style="fill:#fca648; stroke:none;" d="M693 214L694 215L693 214M256 215L257 216L256 215z"/>
<path style="fill:#dc4367; stroke:none;" d="M289 215L290 216L289 215M499 215L500 216L499 215z"/>
<path style="fill:#fca648; stroke:none;" d="M535 215L536 216L535 215M560 215L561 216L560 215M593.333 215.667L593.667 216.333L593.333 215.667z"/>
<path style="fill:#dc4367; stroke:none;" d="M693 215L694 216L693 215z"/>
<path style="fill:#fca648; stroke:none;" d="M156 216L157 217L156 216z"/>
<path style="fill:#dc4367; stroke:none;" d="M536 216L537 217L536 216z"/>
<path style="fill:#fca648; stroke:none;" d="M288 217L289 218L288 217z"/>
<path style="fill:#dc4367; stroke:none;" d="M498 217L499 218L498 217z"/>
<path style="fill:#fca648; stroke:none;" d="M536 217L537 218L536 217M561 217L562 218L561 217M694 217L695 218L694 217z"/>
<path style="fill:#dc4367; stroke:none;" d="M255 218L256 219L255 218M288 218L289 219L288 218z"/>
<path style="fill:#fca648; stroke:none;" d="M498 218L499 219L498 218z"/>
<path style="fill:#dc4367; stroke:none;" d="M537 218L538 219L537 218M561 218L562 219L561 218M594 218L595 219L594 218M694 218L695 219L694 218M155 219L156 220L155 219z"/>
<path style="fill:#fca648; stroke:none;" d="M255 219L256 220L255 219z"/>
<path style="fill:#dc4367; stroke:none;" d="M497 219L498 220L497 219z"/>
<path style="fill:#fca648; stroke:none;" d="M537 219L538 220L537 219M594.333 219.667L594.667 220.333L594.333 219.667M287 220L288 221L287 220M497.333 220.667L497.667 221.333L497.333 220.667M562 220L563 221L562 220M695 220L696 221L695 220M154 221L155 222L154 221z"/>
<path style="fill:#dc4367; stroke:none;" d="M287 221L288 222L287 221M538.333 221.667L538.667 222.333L538.333 221.667M562.333 221.667L562.667 222.333L562.333 221.667M254 222L255 223L254 222z"/>
<path style="fill:#fca648; stroke:none;" d="M696 222L697 223L696 222M254.333 223.667L254.667 224.333L254.333 223.667M286 223L287 224L286 223z"/>
<path style="fill:#dc4367; stroke:none;" d="M496 223L496 229L497 229L496 223z"/>
<path style="fill:#fca648; stroke:none;" d="M538 223L538 229L539 229L538 223M563.333 223.667L563.667 224.333L563.333 223.667z"/>
<path style="fill:#dc4367; stroke:none;" d="M595 223L596 224L595 223M696 223L697 224L696 223z"/>
<path style="fill:#fca648; stroke:none;" d="M153 224L154 225L153 224z"/>
<path style="fill:#dc4367; stroke:none;" d="M286.333 224.667L286.667 225.333L286.333 224.667z"/>
<path style="fill:#fca648; stroke:none;" d="M595.333 224.667L595.667 225.333L595.333 224.667z"/>
<path style="fill:#dc4367; stroke:none;" d="M563.333 225.667L563.667 226.333L563.333 225.667z"/>
<path style="fill:#fca648; stroke:none;" d="M697 225L698 226L697 225z"/>
<path style="fill:#dc4367; stroke:none;" d="M697 226L698 227L697 226z"/>
<path style="fill:#fca648; stroke:none;" d="M152 227L153 228L152 227M285.333 227.667L285.667 228.333L285.333 227.667M564.333 227.667L564.667 228.333L564.333 227.667z"/>
<path style="fill:#dc4367; stroke:none;" d="M253 228L254 229L253 228M596.333 228.667L596.667 229.333L596.333 228.667z"/>
<path style="fill:#fca648; stroke:none;" d="M698 228L699 229L698 228z"/>
<path style="fill:#bb34a1; stroke:none;" d="M185 229L184 231L185 229z"/>
<path style="fill:#fca648; stroke:none;" d="M253 229L253 232L254 232L253 229z"/>
<path style="fill:#dc4367; stroke:none;" d="M285.333 229.667L285.667 230.333L285.333 229.667M415 229L415 230L421 230L415 229z"/>
<path style="fill:#fca648; stroke:none;" d="M421 229L421 230L429 230L421 229z"/>
<path style="fill:#dc4367; stroke:none;" d="M429 229L429 230L435 230L429 229M538 229L538 232L539 232L538 229M564 229L564 232L565 232L564 229M698 229L699 230L698 229z"/>
<path style="fill:#fca648; stroke:none;" d="M151 230L152 231L151 230z"/>
<path style="fill:#dc4367; stroke:none;" d="M408 230L408 231L411 231L408 230z"/>
<path style="fill:#fca648; stroke:none;" d="M411.667 230.333L412.333 230.667L411.667 230.333z"/>
<path style="fill:#fbfafa; stroke:none;" d="M413 230.428C399.8 232.319 387.227 236.85 376 244.09C311.586 285.624 329.701 389.659 405 405.985C414.949 408.142 425.874 409.022 436 407.572C449.485 405.641 462.594 401.212 474 393.644C537.593 351.454 520.49 253.195 448 232.71C437.02 229.607 424.321 228.806 413 230.428z"/>
<path style="fill:#fca648; stroke:none;" d="M437.667 230.333L438.333 230.667L437.667 230.333z"/>
<path style="fill:#dc4367; stroke:none;" d="M439 230L439 231L442 231L439 230z"/>
<path style="fill:#fca648; stroke:none;" d="M497.333 230.667L497.667 231.333L497.333 230.667M596 230L596 233L597 233L596 230z"/>
<path style="fill:#dc4367; stroke:none;" d="M403 231L403 232L406 232L403 231z"/>
<path style="fill:#fca648; stroke:none;" d="M406 231L407 232L406 231M443 231L444 232L443 231z"/>
<path style="fill:#dc4367; stroke:none;" d="M444 231L444 232L447 232L444 231z"/>
<path style="fill:#fca648; stroke:none;" d="M699.333 231.667L699.667 232.333L699.333 231.667M284.333 232.667L284.667 233.333L284.333 232.667z"/>
<path style="fill:#dc4367; stroke:none;" d="M400.667 232.333L401.333 232.667L400.667 232.333z"/>
<path style="fill:#fca648; stroke:none;" d="M402 232L403 233L402 232M447 232L448 233L447 232z"/>
<path style="fill:#dc4367; stroke:none;" d="M448.667 232.333L449.333 232.667L448.667 232.333M497 232L498 233L497 232z"/>
<path style="fill:#fca648; stroke:none;" d="M537 232L538 233L537 232M150 233L151 234L150 233z"/>
<path style="fill:#dc4367; stroke:none;" d="M397 233L398 234L397 233z"/>
<path style="fill:#fca648; stroke:none;" d="M398 233L399 234L398 233M450.667 233.333L451.333 233.667L450.667 233.333z"/>
<path style="fill:#dc4367; stroke:none;" d="M452 233L453 234L452 233M537 233L538 234L537 233z"/>
<path style="fill:#fca648; stroke:none;" d="M565.333 233.667L565.667 234.333L565.333 233.667z"/>
<path style="fill:#dc4367; stroke:none;" d="M699 233L700 234L699 233M150 234L151 235L150 234M284 234L284 237L285 237L284 234M394 234L395 235L394 234z"/>
<path style="fill:#fca648; stroke:none;" d="M395 234L396 235L395 234M454 234L455 235L454 234z"/>
<path style="fill:#dc4367; stroke:none;" d="M455 234L456 235L455 234z"/>
<path style="fill:#fca648; stroke:none;" d="M498 234L499 235L498 234z"/>
<path style="fill:#dc4367; stroke:none;" d="M597 234L597 238L598 238L597 234z"/>
<path style="fill:#fca648; stroke:none;" d="M700.333 234.667L700.667 235.333L700.333 234.667z"/>
<path style="fill:#dc4367; stroke:none;" d="M252.333 235.667L252.667 236.333L252.333 235.667M391 235L392 236L391 235z"/>
<path style="fill:#fca648; stroke:none;" d="M392 235L393 236L392 235z"/>
<path style="fill:#dc4367; stroke:none;" d="M457 235L458 236L457 235M498 235L499 236L498 235M536 235L537 236L536 235M565 235L565 240L566 240L565 235z"/>
<path style="fill:#fca648; stroke:none;" d="M149 236L150 237L149 236z"/>
<path style="fill:#dc4367; stroke:none;" d="M389 236L390 237L389 236z"/>
<path style="fill:#fca648; stroke:none;" d="M390 236L391 237L390 236M459 236L460 237L459 236z"/>
<path style="fill:#dc4367; stroke:none;" d="M460 236L461 237L460 236M499 236L500 237L499 236M700 236L701 237L700 236M149 237L150 238L149 237z"/>
<path style="fill:#fca648; stroke:none;" d="M252 237L252 241L253 241L252 237z"/>
<path style="fill:#dc4367; stroke:none;" d="M387 237L388 238L387 237z"/>
<path style="fill:#fca648; stroke:none;" d="M388 237L389 238L388 237M461 237L462 238L461 237z"/>
<path style="fill:#dc4367; stroke:none;" d="M462 237L463 238L462 237z"/>
<path style="fill:#fca648; stroke:none;" d="M500 237L501 238L500 237z"/>
<path style="fill:#dc4367; stroke:none;" d="M535 237L536 238L535 237M385 238L386 239L385 238z"/>
<path style="fill:#fca648; stroke:none;" d="M463 238L464 239L463 238z"/>
<path style="fill:#dc4367; stroke:none;" d="M464 238L465 239L464 238M500 238L501 239L500 238z"/>
<path style="fill:#fca648; stroke:none;" d="M534 238L535 239L534 238M597 238L597 243L598 243L597 238M701 238L702 239L701 238M283 239L283 243L284 243L283 239z"/>
<path style="fill:#dc4367; stroke:none;" d="M383 239L384 240L383 239z"/>
<path style="fill:#fca648; stroke:none;" d="M465 239L466 240L465 239z"/>
<path style="fill:#dc4367; stroke:none;" d="M466 239L467 240L466 239M501 239L502 240L501 239z"/>
<path style="fill:#fca648; stroke:none;" d="M533 239L534 240L533 239z"/>
<path style="fill:#dc4367; stroke:none;" d="M701 239L702 240L701 239z"/>
<path style="fill:#fca648; stroke:none;" d="M148 240L149 241L148 240z"/>
<path style="fill:#dc4367; stroke:none;" d="M381 240L382 241L381 240z"/>
<path style="fill:#fca648; stroke:none;" d="M382 240L383 241L382 240M467 240L468 241L467 240z"/>
<path style="fill:#dc4367; stroke:none;" d="M468 240L469 241L468 240z"/>
<path style="fill:#fca648; stroke:none;" d="M502 240L503 241L502 240z"/>
<path style="fill:#dc4367; stroke:none;" d="M533 240L534 241L533 240z"/>
<path style="fill:#fca648; stroke:none;" d="M566 240L566 245L567 245L566 240z"/>
<path style="fill:#dc4367; stroke:none;" d="M379 241L380 242L379 241z"/>
<path style="fill:#fca648; stroke:none;" d="M380 241L381 242L380 241M469 241L470 242L469 241z"/>
<path style="fill:#dc4367; stroke:none;" d="M470 241L471 242L470 241z"/>
<path style="fill:#fca648; stroke:none;" d="M503 241L504 242L503 241M531 241L530 243L531 241z"/>
<path style="fill:#dc4367; stroke:none;" d="M532 241L533 242L532 241z"/>
<path style="fill:#fca648; stroke:none;" d="M702.333 241.667L702.667 242.333L702.333 241.667M378 242L379 243L378 242M471 242L472 243L471 242z"/>
<path style="fill:#dc4367; stroke:none;" d="M504 242L505 243L504 242M531 242L532 243L531 242z"/>
<path style="fill:#fca648; stroke:none;" d="M147.333 243.667L147.667 244.333L147.333 243.667z"/>
<path style="fill:#dc4367; stroke:none;" d="M283 243L283 250L284 250L283 243M376 243L377 244L376 243z"/>
<path style="fill:#fca648; stroke:none;" d="M472 243L473 244L472 243z"/>
<path style="fill:#dc4367; stroke:none;" d="M473 243L474 244L473 243M505 243L506 244L505 243z"/>
<path style="fill:#fca648; stroke:none;" d="M506 243L507 244L506 243z"/>
<path style="fill:#dc4367; stroke:none;" d="M529 243L530 244L529 243M702 243L703 244L702 243M374 244L375 245L374 244z"/>
<path style="fill:#fca648; stroke:none;" d="M375 244L376 245L375 244M474 244L475 245L474 244z"/>
<path style="fill:#dc4367; stroke:none;" d="M507 244L508 245L507 244z"/>
<path style="fill:#fca648; stroke:none;" d="M527 244L528 245L527 244z"/>
<path style="fill:#dc4367; stroke:none;" d="M528 244L529 245L528 244M598 244L598 256L599 256L598 244M251 245L251 254L252 254L251 245M373 245L374 246L373 245M476 245L477 246L476 245M508.667 245.333L509.333 245.667L508.667 245.333z"/>
<path style="fill:#fca648; stroke:none;" d="M510 245L511 246L510 245M525 245L526 246L525 245z"/>
<path style="fill:#dc4367; stroke:none;" d="M526 245L527 246L526 245M566 245L566 258L567 258L566 245z"/>
<path style="fill:#fca648; stroke:none;" d="M703 245L704 246L703 245M372 246L373 247L372 246M477 246L478 247L477 246z"/>
<path style="fill:#dc4367; stroke:none;" d="M511.667 246.333L512.333 246.667L511.667 246.333z"/>
<path style="fill:#fca648; stroke:none;" d="M513.667 246.333L514.333 246.667L513.667 246.333M521.667 246.333L522.333 246.667L521.667 246.333z"/>
<path style="fill:#dc4367; stroke:none;" d="M523.667 246.333L524.333 246.667L523.667 246.333M703 246L704 247L703 246z"/>
<path style="fill:#fca648; stroke:none;" d="M146 247L147 248L146 247z"/>
<path style="fill:#dc4367; stroke:none;" d="M370 247L371 248L370 247z"/>
<path style="fill:#fca648; stroke:none;" d="M371 247L372 248L371 247M478 247L479 248L478 247z"/>
<path style="fill:#dc4367; stroke:none;" d="M479 247L480 248L479 247M515 247L515 248L521 248L515 247M146 248L147 249L146 248M369 248L370 249L369 248M480 248L481 249L480 248z"/>
<path style="fill:#fca648; stroke:none;" d="M368 249L369 250L368 249z"/>
<path style="fill:#dc4367; stroke:none;" d="M481 249L482 250L481 249z"/>
<path style="fill:#fca648; stroke:none;" d="M704 249L705 250L704 249M367 250L368 251L367 250M482 250L483 251L482 250z"/>
<path style="fill:#dc4367; stroke:none;" d="M704 250L705 251L704 250z"/>
<path style="fill:#fca648; stroke:none;" d="M145 251L146 252L145 251M366 251L367 252L366 251M483 251L484 252L483 251z"/>
<path style="fill:#dc4367; stroke:none;" d="M145 252L146 253L145 252M364 252L365 253L364 252z"/>
<path style="fill:#fca648; stroke:none;" d="M484 252L485 253L484 252z"/>
<path style="fill:#dc4367; stroke:none;" d="M485 252L486 253L485 252M363 253L364 254L363 253M486 253L487 254L486 253z"/>
<path style="fill:#fca648; stroke:none;" d="M705 253L706 254L705 253M251 254L251 263L252 263L251 254z"/>
<path style="fill:#dc4367; stroke:none;" d="M362 254L363 255L362 254M487 254L488 255L487 254M705.333 254.667L705.667 255.333L705.333 254.667z"/>
<path style="fill:#fca648; stroke:none;" d="M144.333 255.667L144.667 256.333L144.333 255.667z"/>
<path style="fill:#dc4367; stroke:none;" d="M361 255L362 256L361 255M488 255L489 256L488 255z"/>
<path style="fill:#fca648; stroke:none;" d="M282 256L282 267L283 267L282 256z"/>
<path style="fill:#dc4367; stroke:none;" d="M360 256L361 257L360 256M489 256L490 257L489 256z"/>
<path style="fill:#fca648; stroke:none;" d="M598 256L598 382L599 382L599 294C599 283.104 602.208 266.027 598 256z"/>
<path style="fill:#dc4367; stroke:none;" d="M359 257L360 258L359 257M490 257L493 260L490 257z"/>
<path style="fill:#fca648; stroke:none;" d="M706.333 257.667L706.667 258.333L706.333 257.667z"/>
<path style="fill:#dc4367; stroke:none;" d="M358 258L359 259L358 258z"/>
<path style="fill:#fca648; stroke:none;" d="M490 258L491 259L490 258M567 258L567 271L568 271L567 258M491 259L492 260L491 259z"/>
<path style="fill:#dc4367; stroke:none;" d="M706.333 259.667L706.667 260.333L706.333 259.667z"/>
<path style="fill:#fca648; stroke:none;" d="M143.333 260.667L143.667 261.333L143.333 260.667M357 260L358 261L357 260M492 260L493 261L492 260M356 261L357 262L356 261M414.667 261.333L415.333 261.667L414.667 261.333z"/>
<path style="fill:#dc4367; stroke:none;" d="M416 261L416 262L434 262L416 261z"/>
<path style="fill:#fca648; stroke:none;" d="M434.667 261.333L435.333 261.667L434.667 261.333M493 261L494 262L493 261z"/>
<path style="fill:#dc4367; stroke:none;" d="M355 262L356 263L355 262z"/>
<path style="fill:#fca648; stroke:none;" d="M410 262L411 263L410 262z"/>
<path style="fill:#dc4367; stroke:none;" d="M411 262L411 263L415 263L411 262z"/>
<path style="fill:#bb34a1; stroke:none;" d="M382 281L392 282L392 280L399 279L399 282C406.027 281.251 420.77 285.986 426 280L427 280L433 281L433 280C428.95 281.066 424.287 278.041 429 275L428 279L429 280L433 278L434 281L435 281L436 278L437 278L436 282L437 282L440 276L440 275L435 276L435 279L430 277L429 272L426 273L433 270L432 272L436 272L437 269L438 269L438 272L440 271L440 274L441 274L444 273L444 274L457 272L454 276L454 277L460 276L460 275L459 272C433.238 259.255 402.516 256.281 382 281z"/>
<path style="fill:#dc4367; stroke:none;" d="M435 262L435 263L439 263L435 262z"/>
<path style="fill:#fca648; stroke:none;" d="M439 262L440 263L439 262z"/>
<path style="fill:#dc4367; stroke:none;" d="M494 262L496 264L496 262L494 262z"/>
<path style="fill:#fca648; stroke:none;" d="M707.333 262.667L707.667 263.333L707.333 262.667z"/>
<path style="fill:#dc4367; stroke:none;" d="M354 263L355 264L354 263z"/>
<path style="fill:#fca648; stroke:none;" d="M406.667 263.333L407.333 263.667L406.667 263.333z"/>
<path style="fill:#dc4367; stroke:none;" d="M408.667 263.333L409.333 263.667L408.667 263.333M440.667 263.333L441.333 263.667L440.667 263.333z"/>
<path style="fill:#fca648; stroke:none;" d="M442 263L443 264L442 263z"/>
<path style="fill:#dc4367; stroke:none;" d="M353 264L352 266L353 264z"/>
<path style="fill:#fca648; stroke:none;" d="M404 264L405 265L404 264z"/>
<path style="fill:#dc4367; stroke:none;" d="M405.667 264.333L406.333 264.667L405.667 264.333M443.667 264.333L444.333 264.667L443.667 264.333z"/>
<path style="fill:#fca648; stroke:none;" d="M445 264L446 265L445 264z"/>
<path style="fill:#dc4367; stroke:none;" d="M496 264L497 267L498 267L496 264M501.667 264.333L502.333 264.667L501.667 264.333M707.333 264.667L707.667 265.333L707.333 264.667z"/>
<path style="fill:#fca648; stroke:none;" d="M142.333 265.667L142.667 266.333L142.333 265.667M353 265L354 266L353 265M401 265L402 266L401 265z"/>
<path style="fill:#dc4367; stroke:none;" d="M402.667 265.333L403.333 265.667L402.667 265.333M446 265L446 266L450 267L450 266L446 265z"/>
<path style="fill:#fca648; stroke:none;" d="M448 265L449 266L448 265M496 265L497 266L496 265M352 266L353 267L352 266M399 266L400 267L399 266z"/>
<path style="fill:#dc4367; stroke:none;" d="M400 266L401 267L400 266z"/>
<path style="fill:#fca648; stroke:none;" d="M450 266L451 267L450 266z"/>
<path style="fill:#dc4367; stroke:none;" d="M142 267L143 268L142 267M282 267C282 300.692 282.162 334.382 282.985 368C283.453 387.097 282.053 408.876 292 426L308 427C310.053 430.125 311.849 429.601 315 428C317.941 433.059 328.51 433.53 334 434.065C342.383 434.881 351.708 438.292 358 444L364 442C364.972 446.561 370.791 447.929 375 448L375 449L373 449L373 450L377 449L378 452L380 450L394 460L399 459C402.419 462.913 412.086 460.977 417 461.001C432.666 461.076 448.337 461.076 464 461.001C487.816 460.886 515.683 463.443 537 450.535C564.461 433.907 566.661 402.836 567.004 374C567.411 339.729 568 305.349 568 271L567 271L567 287L565 284L556 280L558 282L558 283L552 284L552 283L555 283L555 281L554 280L540 282L540 280L537 281L537 280L544 277L537 279L537 276L531 279L525 273L520 279L520 280L527 278L527 281L518 281L518 278L521 278L517 278L516 278L513 275L515 280L514 280L511 276L512 278L505 278L506 273L502 273C509.577 291.199 514.476 306.007 513.985 326C513.711 337.171 509.801 349.128 504.741 359C474.134 418.707 388.681 425.728 351.004 369C345.262 360.354 340.641 351.158 338.236 341C333.388 320.522 336.365 302.613 343 283L335 286C334.422 282.53 326.016 284.18 323 284.583C310.12 286.308 295.45 284.839 283 288L282 267M351 267L352 268L351 267z"/>
<path style="fill:#fca648; stroke:none;" d="M397 267L398 268L397 267z"/>
<path style="fill:#dc4367; stroke:none;" d="M398 267L399 268L398 267M451 267L452 268L451 267z"/>
<path style="fill:#fca648; stroke:none;" d="M452 267L453 268L452 267z"/>
<path style="fill:#dc4367; stroke:none;" d="M498 267L500 269L498 267M510.667 267.333L511.333 267.667L510.667 267.333M536 267L536 268L539 269L536 267z"/>
<path style="fill:#8e3dae; stroke:none;" d="M142.333 268.667L142.667 269.333L142.333 268.667z"/>
<path style="fill:#dc4367; stroke:none;" d="M350 268L351 269L350 268M396 268L397 269L396 268M433 268L434 269L433 268M439 268L439 270L441 270L439 268M453 268L454 269L453 268z"/>
<path style="fill:#fca648; stroke:none;" d="M498 268L499 269L498 268z"/>
<path style="fill:#dc4367; stroke:none;" d="M513 268L514 269L513 268z"/>
<path style="fill:#fca648; stroke:none;" d="M708 268L709 269L708 268M350 269L351 270L350 269z"/>
<path style="fill:#dc4367; stroke:none;" d="M394.667 269.333L395.333 269.667L394.667 269.333M430 269L431 270L430 269M437 269L436 272L432 272L433 270L432 270L426 273L429 272L430 277L435 279L435 276L437 274L440 275L440 276L437 282L436 282L437 278L436 278L435 281L434 281L433 278L429 280L428 279L429 275L426 276C427.58 279.723 428.97 280.915 433 280L433 281L427 280L426 280C418.651 285.54 407.293 280.382 399 282L399 279L392 280L392 282L381 280L379 287C371.597 288.408 369.302 301.593 368.004 308C363.484 330.307 373.431 355.38 393 367.532C413.383 380.191 440.586 380.429 460 365.471C489.622 342.646 491.476 293.497 459 272L460 275L460 276L454 277L454 276L457 272L444 274L444 273L446 272L441 274L440 274L437 269M454 269L454 270L458 272L458 271L454 269z"/>
<path style="fill:#fca648; stroke:none;" d="M455 269L456 270L455 269M499 269L500 270L499 269z"/>
<path style="fill:#dc4367; stroke:none;" d="M708 269L708 272L709 272L708 269z"/>
<path style="fill:#fca648; stroke:none;" d="M141.333 270.667L141.667 271.333L141.333 270.667z"/>
<path style="fill:#dc4367; stroke:none;" d="M349 270L350 271L349 270z"/>
<path style="fill:#fca648; stroke:none;" d="M392 270L393 271L392 270z"/>
<path style="fill:#dc4367; stroke:none;" d="M393 270L394 271L393 270M421 270L422 271L421 270M435 270L436 271L435 270M446.333 270.667L446.667 271.333L446.333 270.667z"/>
<path style="fill:#fca648; stroke:none;" d="M457 270L458 271L457 270z"/>
<path style="fill:#dc4367; stroke:none;" d="M500 270L501 273L502 273L500 270M348 271L349 272L348 271M391.667 271.333L392.333 271.667L391.667 271.333M416 271L413 277L417 279L414 279L414 280L420 280L419 273L418 273L419 275L418 275L416 271M450 271L451 272L450 271z"/>
<path style="fill:#fca648; stroke:none;" d="M458 271L459 272L458 271M500 271L501 272L500 271z"/>
<path style="fill:#dc4367; stroke:none;" d="M552 271L553 272L552 271M141.333 272.667L141.667 273.333L141.333 272.667M250 272C250 277.144 251.932 287.19 248.972 291.577C242.688 300.89 222.48 294.097 215 303L189 309L188 309L187 309L163.015 321.149L153 326L139 335L139 329L138 329C138.003 360.616 145.489 393.724 157.2 423C160.466 431.166 164.504 447.09 172 452L171 449C176.645 448.374 189.518 442.465 193 438L202 436L203 433L205 435L206 435C211.285 430.824 220.464 430.941 227 431L225 429L225 428L231 428L232 431L235 427C239.115 427.942 241.906 427.994 244 424L245 424C247.085 427.212 250.388 428.168 253 425L254 425L256 427C255.746 414.693 251.937 402.376 251.09 390C249.575 367.881 251 345.174 251 323C251 308.7 255.506 285.121 250 272z"/>
<path style="fill:#fca648; stroke:none;" d="M348 272L349 273L348 272z"/>
<path style="fill:#dc4367; stroke:none;" d="M390 272L391 273L390 272M420 272L421 273L420 272M423 272L421 275L421 280L426 280L426 279L424 278L426 278L426 273L423 272z"/>
<path style="fill:#bb34a1; stroke:none;" d="M430 272L431 273L430 272z"/>
<path style="fill:#dc4367; stroke:none;" d="M550 272L548 273L548 274L550 272M347 273L348 274L347 273z"/>
<path style="fill:#fca648; stroke:none;" d="M388 273L387 275L388 273z"/>
<path style="fill:#dc4367; stroke:none;" d="M389 273L390 274L389 273M407.667 273.333L408.333 273.667L407.667 273.333M410 273L411 274L410 273z"/>
<path style="fill:#bb34a1; stroke:none;" d="M415 273L414 276L415 273M432.333 273.667L432.667 274.333L432.333 273.667M434 273L434 275L436 275L434 273M451 274L451 275L454 275L454 274L451 274z"/>
<path style="fill:#fca648; stroke:none;" d="M461 273L462 274L461 273z"/>
<path style="fill:#dc4367; stroke:none;" d="M523 273L524 274L523 273z"/>
<path style="fill:#fca648; stroke:none;" d="M709.333 273.667L709.667 274.333L709.333 273.667M347 274L348 275L347 274z"/>
<path style="fill:#dc4367; stroke:none;" d="M388 274L389 275L388 274z"/>
<path style="fill:#bb34a1; stroke:none;" d="M449 274L450 275L449 274z"/>
<path style="fill:#fca648; stroke:none;" d="M462 274L463 275L462 274M502 274L503 275L502 274z"/>
<path style="fill:#dc4367; stroke:none;" d="M346 275L343 282L344 282L346 275M386 275L387 276L386 275M402 276L411 279L412 278L407 277L402 276z"/>
<path style="fill:#bb34a1; stroke:none;" d="M441 275L443 278L438 282L445 276L441 275z"/>
<path style="fill:#fca648; stroke:none;" d="M463 275L464 276L463 275z"/>
<path style="fill:#dc4367; stroke:none;" d="M506 275L507 276L506 275M709 275L709 278L710 278L709 275z"/>
<path style="fill:#fca648; stroke:none;" d="M346 276L347 277L346 276z"/>
<path style="fill:#dc4367; stroke:none;" d="M385 276L386 277L385 276z"/>
<path style="fill:#bb34a1; stroke:none;" d="M418 276L419 277L418 276z"/>
<path style="fill:#fca648; stroke:none;" d="M503 276L504 277L503 276z"/>
<path style="fill:#bb34a1; stroke:none;" d="M526 276L526 277L529 278L526 276z"/>
<path style="fill:#dc4367; stroke:none;" d="M538 276L539 277L538 276z"/>
<path style="fill:#fca648; stroke:none;" d="M140.333 277.667L140.667 278.333L140.333 277.667z"/>
<path style="fill:#dc4367; stroke:none;" d="M384 277L382 280L384 277z"/>
<path style="fill:#bb34a1; stroke:none;" d="M446 280L447 280L451 279C449.32 276.084 446.678 276.838 446 280z"/>
<path style="fill:#fca648; stroke:none;" d="M345 278L346 279L345 278z"/>
<path style="fill:#dc4367; stroke:none;" d="M393 278L393 280L395 280L393 278z"/>
<path style="fill:#bb34a1; stroke:none;" d="M418 278L419 279L418 278M452 278L453 279L452 278z"/>
<path style="fill:#fca648; stroke:none;" d="M504 278L505 279L504 278z"/>
<path style="fill:#bb34a1; stroke:none;" d="M509 278L508 280L509 278M535 278L536 279L535 278z"/>
<path style="fill:#dc4367; stroke:none;" d="M543 279L543 280L548 281L548 278L543 279M140.333 279.667L140.667 280.333L140.333 279.667z"/>
<path style="fill:#bb34a1; stroke:none;" d="M510 281L513 281L512 279L510 281M528 279L529 280L528 279z"/>
<path style="fill:#fca648; stroke:none;" d="M344 280L345 281L344 280z"/>
<path style="fill:#bb34a1; stroke:none;" d="M442.333 280.667L442.667 281.333L442.333 280.667M444 280L446 282L444 280z"/>
<path style="fill:#fca648; stroke:none;" d="M468 280L469 281L468 280M505 280L506 281L505 280z"/>
<path style="fill:#dc4367; stroke:none;" d="M522 280L523 281L522 280z"/>
<path style="fill:#fca648; stroke:none;" d="M710 280L710 283L711 283L710 280M380 281L381 282L380 281M469 281L470 282L469 281M343 282L344 283L343 282M379 282L380 283L379 282M470 282L471 283L470 282M506 282L507 283L506 282z"/>
<path style="fill:#bb34a1; stroke:none;" d="M380 283L380 286L381 286L380 283M393 284L393 285L396 285L393 284M428 283L429 284L428 283M508 283L509 284L508 283M518 283L516 286L520 285L518 283M521 285C523.396 285.575 523.487 285.475 524 283L521 285M525 283L526 284L525 283M550 283L551 284L550 283z"/>
<path style="fill:#dc4367; stroke:none;" d="M710 283L710 286L711 286L710 283z"/>
<path style="fill:#fca648; stroke:none;" d="M139 284L139 287L140 287L139 284M342 284L343 285L342 284z"/>
<path style="fill:#bb34a1; stroke:none;" d="M386 284L386 285L389 285L389 284L386 284M398 284L399 285L398 284M405 284L404 286L405 284z"/>
<path style="fill:#fca648; stroke:none;" d="M507 284L508 285L507 284z"/>
<path style="fill:#bb34a1; stroke:none;" d="M512 286L514 287L515 287L513 284L512 286M557 284L557 285L559 285L559 286L556 286L556 287L562 285L562 284L557 284M339 285L340 286L339 285z"/>
<path style="fill:#fca648; stroke:none;" d="M377 285L378 286L377 285z"/>
<path style="fill:#bb34a1; stroke:none;" d="M378.333 285.667L378.667 286.333L378.333 285.667z"/>
<path style="fill:#fca648; stroke:none;" d="M472 285L473 286L472 285z"/>
<path style="fill:#bb34a1; stroke:none;" d="M531.333 285.667L531.667 286.333L531.333 285.667M533 285L534 286L533 285M551 285L552 286L551 285z"/>
<path style="fill:#fca648; stroke:none;" d="M376 286L377 287L376 286z"/>
<path style="fill:#bb34a1; stroke:none;" d="M382 286L383 287L382 286z"/>
<path style="fill:#fca648; stroke:none;" d="M473 286L474 287L473 286z"/>
<path style="fill:#bb34a1; stroke:none;" d="M518 286L521 288L521 287L518 286M563 286L567 292L567 288L563 286z"/>
<path style="fill:#dc4367; stroke:none;" d="M139.333 287.667L139.667 288.333L139.333 287.667z"/>
<path style="fill:#bb34a1; stroke:none;" d="M335 287L336 288L335 287z"/>
<path style="fill:#fca648; stroke:none;" d="M341 287L342 288L341 287M508 287L509 288L508 287z"/>
<path style="fill:#bb34a1; stroke:none;" d="M516 287L517 288L516 287M529 287L529 290L530 290L529 287M533 287L534 288L533 287M560 287L560 289L562 289L562 287L560 287z"/>
<path style="fill:#dc4367; stroke:none;" d="M603 287L604 288L603 287z"/>
<path style="fill:#fca648; stroke:none;" d="M474 288L475 289L474 288z"/>
<path style="fill:#bb34a1; stroke:none;" d="M531 288L533 290L531 288M535.667 288.333L536.333 288.667L535.667 288.333z"/>
<path style="fill:#fca648; stroke:none;" d="M711 288L711 292L712 292L711 288M340 289L341 290L340 289z"/>
<path style="fill:#bb34a1; stroke:none;" d="M521 289L522 290L521 289M538 289L539 290L538 289z"/>
<path style="fill:#dc4367; stroke:none;" d="M565.333 289.667L565.667 290.333L565.333 289.667z"/>
<path style="fill:#fca648; stroke:none;" d="M509 290L510 291L509 290z"/>
<path style="fill:#bb34a1; stroke:none;" d="M523 290L524 291L523 290M526 290L527 291L526 290z"/>
<path style="fill:#fca648; stroke:none;" d="M373 291L374 292L373 291z"/>
<path style="fill:#bb34a1; stroke:none;" d="M528.667 291.333L529.333 291.667L528.667 291.333M531 291L532 292L531 291M534 292L534 293C537.055 292.891 539.461 295.579 540 291L539 291L538 293L534 292M541 291L544 296L545 292L545 291L541 291z"/>
<path style="fill:#dc4367; stroke:none;" d="M599 291L599 294L600 294L599 291M608 291L609 292L608 291z"/>
<path style="fill:#fca648; stroke:none;" d="M339.333 292.667L339.667 293.333L339.333 292.667z"/>
<path style="fill:#bb34a1; stroke:none;" d="M525 292L526 293L525 292z"/>
<path style="fill:#dc4367; stroke:none;" d="M711 292L711 297L712 297L711 292z"/>
<path style="fill:#fca648; stroke:none;" d="M372 293L373 294L372 293M510 293L511 294L510 293z"/>
<path style="fill:#bb34a1; stroke:none;" d="M527.667 293.333L528.333 293.667L527.667 293.333M530 293L531 294L530 293M532 293L533 294L532 293z"/>
<path style="fill:#dc4367; stroke:none;" d="M542 293L543 294L542 293z"/>
<path style="fill:#bb34a1; stroke:none;" d="M546 293L547 294L546 293z"/>
<path style="fill:#fca648; stroke:none;" d="M138 294L138 298L139 298L138 294z"/>
<path style="fill:#dc4367; stroke:none;" d="M602 294L600 298L605 298L605 297L602 294z"/>
<path style="fill:#fca648; stroke:none;" d="M371 295L372 296L371 295z"/>
<path style="fill:#bb34a1; stroke:none;" d="M530 295L531 296L530 295M534 295L535 296L534 295M536.667 295.333L537.333 295.667L536.667 295.333z"/>
<path style="fill:#fca648; stroke:none;" d="M338 296L339 297L338 296M478 296L479 297L478 296M511.333 296.667L511.667 297.333L511.333 296.667z"/>
<path style="fill:#bb34a1; stroke:none;" d="M539 296L540 297L539 296M542 297L543 298L542 297M552 297L553 298L552 297z"/>
<path style="fill:#dc4367; stroke:none;" d="M138 298L138 301L139 301L138 298z"/>
<path style="fill:#fca648; stroke:none;" d="M370 298L371 299L370 298M479 298L480 299L479 298z"/>
<path style="fill:#bb34a1; stroke:none;" d="M544 298L545 299L544 298z"/>
<path style="fill:#dc4367; stroke:none;" d="M599 298L600 299L599 298M607 298L606 300L607 298M600 299C596.34 312.587 599 329.957 599 344C599 394.71 599.707 451.203 549 479.41C538.299 485.362 526.104 489.129 514 490.869C493.776 493.777 473.392 493 453 493L453 494L465 500C472.021 513.152 492.498 524.979 503.997 534.569C519.27 547.307 532.373 564.598 545 580C559.793 575.738 574.34 565.863 587 557.33C623.857 532.489 654.886 499.002 676.306 460C683.606 446.707 699.369 423.712 697 408C702.681 407.146 697.308 400.114 694 399C693.837 395.719 693.154 394.131 690 393L688 391L690 388L686 388L686 387L688 388L688 387L685 385L686 382L683 381L679 377C680.826 372.249 678.677 370.494 674 372L674 371L677 368L673 369L673 368L676 368L672 366L673 363L671 364C670.993 359.38 668.581 356.6 664 356L663 350L662 350L655 349L655 348L658 349L659 344L654 346C654.891 342.191 653.99 340.454 651 338L650 341L644 339L640 331L637 332L638 327L638 328L636 328L636 329C638.875 328.898 640.785 328.779 641 332L647 331L641 328L642 325L633 326L633 323L626 318L624 319L622 312C615.416 312.633 607.617 304.594 605 299L604 299L604 304L603 304L603 300L600 299z"/>
<path style="fill:#fca648; stroke:none;" d="M337.333 300.667L337.667 301.333L337.333 300.667M512.333 300.667L512.667 301.333L512.333 300.667z"/>
<path style="fill:#dc4367; stroke:none;" d="M608 300L610 306L611 306L612 304L614 308L618 307L617 309L620 311L622 310L623 315C628.106 310.952 618.67 305.155 616 302L614 303L608 300M620.667 300.333L621.333 300.667L620.667 300.333z"/>
<path style="fill:#fca648; stroke:none;" d="M712 300L712 306L713 306L712 300M369 301L370 302L369 301M480 301L481 302L480 301z"/>
<path style="fill:#bb34a1; stroke:none;" d="M600 301L601 302L600 301M599 302L600 303L599 302z"/>
<path style="fill:#dc4367; stroke:none;" d="M607 302L608 303L607 302z"/>
<path style="fill:#bb34a1; stroke:none;" d="M610 302L611 303L610 302M612 302L613 303L612 302z"/>
<path style="fill:#dc4367; stroke:none;" d="M623 302L624 303L623 302M203 304L204 305L203 304z"/>
<path style="fill:#fca648; stroke:none;" d="M368.333 304.667L368.667 305.333L368.333 304.667M481.333 304.667L481.667 305.333L481.333 304.667M336 305L336 308L337 308L336 305z"/>
<path style="fill:#bb34a1; stroke:none;" d="M603 305L604 306L603 305M614.333 305.667L614.667 306.333L614.333 305.667z"/>
<path style="fill:#fca648; stroke:none;" d="M513 306L513 309L514 309L513 306z"/>
<path style="fill:#dc4367; stroke:none;" d="M627.667 306.333L628.333 306.667L627.667 306.333M712 306L712 318L713 318L712 306z"/>
<path style="fill:#bb34a1; stroke:none;" d="M619 307L621 309L619 307z"/>
<path style="fill:#fca648; stroke:none;" d="M367 308L367 311L368 311L367 308z"/>
<path style="fill:#bb34a1; stroke:none;" d="M609 308L611 311L609 308z"/>
<path style="fill:#fca648; stroke:none;" d="M137 309L138 310L137 309M482.333 309.667L482.667 310.333L482.333 309.667M137 311L137 329L138 329L137 311z"/>
<path style="fill:#bb34a1; stroke:none;" d="M599 312L600 313L599 312M601 312L602 313L601 312M624 312L625 313L624 312z"/>
<path style="fill:#dc4367; stroke:none;" d="M627 313L627 320L630 319L629 321L634 320L633 323L637 325L638 324L629 313L627 313z"/>
<path style="fill:#bb34a1; stroke:none;" d="M602 314L603 315L602 314M604 314L605 315L604 314M620 314L621 315L620 314M627 314L627 317L628 317L627 314z"/>
<path style="fill:#fca648; stroke:none;" d="M335 315L335 323L336 323L335 315z"/>
<path style="fill:#dc4367; stroke:none;" d="M650 316L651 320L654 319L650 316z"/>
<path style="fill:#bb34a1; stroke:none;" d="M606 318L608 320L608 318L606 318z"/>
<path style="fill:#dc4367; stroke:none;" d="M653 320L654 321L653 320M712 321L712 332L713 332L712 321M655.667 322.333L656.333 322.667L655.667 322.333M658 324L659 325L658 324z"/>
<path style="fill:#fca648; stroke:none;" d="M367.333 327.667L367.667 328.333L367.333 327.667M482.333 327.667L482.667 328.333L482.333 327.667z"/>
<path style="fill:#dc4367; stroke:none;" d="M660 327L664 331L660 327M646 328L647 329L646 328M650 328L651 329L650 328z"/>
<path style="fill:#fca648; stroke:none;" d="M513 329L513 332L514 332L513 329M336 330L336 333L337 333L336 330z"/>
<path style="fill:#dc4367; stroke:none;" d="M637 330L638 331L637 330M640 330L641 331L640 330M653 331L654 332L653 331M664 332L664 333L666 334L667 334L666 331L664 332z"/>
<path style="fill:#fca648; stroke:none;" d="M368.333 332.667L368.667 333.333L368.333 332.667M481.333 332.667L481.667 333.333L481.333 332.667M712 332L712 339L713 339L712 332z"/>
<path style="fill:#dc4367; stroke:none;" d="M642 334L642 335L650 337L650 335L642 334z"/>
<path style="fill:#fca648; stroke:none;" d="M512.333 335.667L512.667 336.333L512.333 335.667z"/>
<path style="fill:#bb34a1; stroke:none;" d="M628 335L629 336L628 335M648.333 335.667L648.667 336.333L648.333 335.667z"/>
<path style="fill:#dc4367; stroke:none;" d="M656 335L657 336L656 335M666 335L666 336L669 337L669 340L674 346L678 346L678 345L676 346L677 343L666 335z"/>
<path style="fill:#fca648; stroke:none;" d="M337.333 336.667L337.667 337.333L337.333 336.667M369 336L370 337L369 336M480 336L481 337L480 336z"/>
<path style="fill:#dc4367; stroke:none;" d="M674 336L675 337L674 336z"/>
<path style="fill:#bb34a1; stroke:none;" d="M669 338L670 339L669 338z"/>
<path style="fill:#fca648; stroke:none;" d="M138 339L138 345L139 345L138 339M370 339L371 340L370 339M479 339L480 340L479 339z"/>
<path style="fill:#dc4367; stroke:none;" d="M649 339L650 340L649 339M656 339L657 340L656 339z"/>
<path style="fill:#fca648; stroke:none;" d="M511.333 340.667L511.667 341.333L511.333 340.667z"/>
<path style="fill:#dc4367; stroke:none;" d="M678 340L679 341L678 340z"/>
<path style="fill:#fca648; stroke:none;" d="M338.333 341.667L338.667 342.333L338.333 341.667M371 341L372 342L371 341M478 341L479 342L478 341z"/>
<path style="fill:#dc4367; stroke:none;" d="M711 342L711 347L712 347L711 342M656 343L656 345L658 343L656 343z"/>
<path style="fill:#bb34a1; stroke:none;" d="M675 343L676 344L675 343z"/>
<path style="fill:#dc4367; stroke:none;" d="M681 343L682 344L681 343z"/>
<path style="fill:#fca648; stroke:none;" d="M339.333 344.667L339.667 345.333L339.333 344.667M372 344L373 345L372 344M510 344L511 345L510 344M374 347L375 348L374 347M475 347L476 348L475 347M509 347L510 348L509 347z"/>
<path style="fill:#dc4367; stroke:none;" d="M663 347L663 349L665 349L663 347M679 347L677 348L680 354L684 354L682 349L679 347z"/>
<path style="fill:#fca648; stroke:none;" d="M711 347L711 350L712 350L711 347M340 348L341 349L340 348z"/>
<path style="fill:#dc4367; stroke:none;" d="M658 349L658 350L661 351L661 348L658 349z"/>
<path style="fill:#fca648; stroke:none;" d="M375 349L376 350L375 349M474 349L475 350L474 349z"/>
<path style="fill:#dc4367; stroke:none;" d="M683 349L684 350L683 349z"/>
<path style="fill:#fca648; stroke:none;" d="M139 350L139 354L140 354L139 350M341.333 350.667L341.667 351.333L341.333 350.667M508 350L509 351L508 350z"/>
<path style="fill:#dc4367; stroke:none;" d="M669 350L670 351L669 350z"/>
<path style="fill:#fca648; stroke:none;" d="M376 351L377 352L376 351z"/>
<path style="fill:#dc4367; stroke:none;" d="M684 351L685 352L684 351M687 351L688 352L687 351M710 351L710 356L711 356L710 351z"/>
<path style="fill:#fca648; stroke:none;" d="M377 352L378 353L377 352M472 352L473 353L472 352M342 353L343 354L342 353M507 353L508 354L507 353z"/>
<path style="fill:#dc4367; stroke:none;" d="M667 353L668 354L667 353M686 354L688 356L686 354z"/>
<path style="fill:#fca648; stroke:none;" d="M343.333 355.667L343.667 356.333L343.333 355.667M379 355L380 356L379 355M506 355L507 356L506 355z"/>
<path style="fill:#dc4367; stroke:none;" d="M683 355L692 367C691.697 369.444 691.563 370.028 694 370L696 376L697 377L697 378L701 378L696 369L699 370L699 369L694 369L694 365L691 366L688 361L689 358L685 355L683 355M689 355L690 356L689 355z"/>
<path style="fill:#fca648; stroke:none;" d="M380 356L381 357L380 356M469 356L470 357L469 356z"/>
<path style="fill:#dc4367; stroke:none;" d="M670 356L671 357L670 356z"/>
<path style="fill:#fca648; stroke:none;" d="M710.333 356.667L710.667 357.333L710.333 356.667M344.333 357.667L344.667 358.333L344.333 357.667M381 357L382 358L381 357M468 357L469 358L468 357M505 357L506 358L505 357z"/>
<path style="fill:#bb34a1; stroke:none;" d="M663 357L664 358L663 357z"/>
<path style="fill:#fca648; stroke:none;" d="M382 358L383 359L382 358M467 358L468 359L467 358z"/>
<path style="fill:#bb34a1; stroke:none;" d="M665 358L666 359L665 358z"/>
<path style="fill:#fca648; stroke:none;" d="M140.333 359.667L140.667 360.333L140.333 359.667M345.333 359.667L345.667 360.333L345.333 359.667M383 359L384 360L383 359M466 359L467 360L466 359M504 359L505 360L504 359z"/>
<path style="fill:#bb34a1; stroke:none;" d="M686 359L687 360L686 359z"/>
<path style="fill:#dc4367; stroke:none;" d="M690 359L692 361L690 359M709 359L709 363L710 363L709 359z"/>
<path style="fill:#fca648; stroke:none;" d="M384 360L385 361L384 360M465 360L466 361L465 360z"/>
<path style="fill:#dc4367; stroke:none;" d="M673 360L676 363L673 360M677 360L678 361L677 360M693 360L694 361L693 360z"/>
<path style="fill:#fca648; stroke:none;" d="M346 361L347 362L346 361M385 361L386 362L385 361M464 361L465 362L464 361M503 361L504 362L503 361z"/>
<path style="fill:#bb34a1; stroke:none;" d="M687 361L688 362L687 361z"/>
<path style="fill:#fca648; stroke:none;" d="M282 362L282 381L283 381L282 362M386 362L387 363L386 362M463 362L464 363L463 362z"/>
<path style="fill:#bb34a1; stroke:none;" d="M689 362L690 363L689 362z"/>
<path style="fill:#fca648; stroke:none;" d="M347 363L348 364L347 363M387 363L388 364L387 363M462 363L463 364L462 363M502 363L503 364L502 363z"/>
<path style="fill:#dc4367; stroke:none;" d="M679 363L680 364L679 363z"/>
<path style="fill:#fca648; stroke:none;" d="M709.333 363.667L709.667 364.333L709.333 363.667M388 364L389 365L388 364M461 364L462 365L461 364z"/>
<path style="fill:#dc4367; stroke:none;" d="M676 364L678 366L676 364z"/>
<path style="fill:#fca648; stroke:none;" d="M141 365L141 368L142 368L141 365M348 365L349 366L348 365M391 366L392 367L391 366M458 366L459 367L458 366M500 366L501 367L500 366z"/>
<path style="fill:#dc4367; stroke:none;" d="M695 366L696 367L695 366M698 366L699 367L698 366M708 366L708 369L709 369L708 366z"/>
<path style="fill:#fca648; stroke:none;" d="M392 367L393 368L392 367M567 367L567 380L568 380L567 367z"/>
<path style="fill:#dc4367; stroke:none;" d="M678.667 367.333L679.333 367.667L678.667 367.333z"/>
<path style="fill:#fca648; stroke:none;" d="M350 368L351 369L350 368M394 368L395 369L394 368M455 368L456 369L455 368M499 368L500 369L499 368z"/>
<path style="fill:#bb34a1; stroke:none;" d="M692 368L693 369L692 368z"/>
<path style="fill:#fca648; stroke:none;" d="M396 369L397 370L396 369M453 369L454 370L453 369M498 369L499 370L498 369M708.333 369.667L708.667 370.333L708.333 369.667M398 370L399 371L398 370M451 370L452 371L451 370z"/>
<path style="fill:#dc4367; stroke:none;" d="M680 370L682 372L682 370L680 370z"/>
<path style="fill:#fca648; stroke:none;" d="M142 371L142 374L143 374L142 371M352 371L353 372L352 371M399.667 371.333L400.333 371.667L399.667 371.333M449 371L450 372L449 371M353 372L354 373L353 372M402 372L403 373L402 372M447 372L448 373L447 372M496 372L497 373L496 372z"/>
<path style="fill:#bb34a1; stroke:none;" d="M678 372L679 373L678 372M695 372L696 373L695 372z"/>
<path style="fill:#dc4367; stroke:none;" d="M701 372L700 374L701 372M707 372L707 375L708 375L707 372z"/>
<path style="fill:#fca648; stroke:none;" d="M404.667 373.333L405.333 373.667L404.667 373.333M445 373L446 374L445 373M495 373L496 374L495 373M354 374L355 375L354 374M407 374L408 375L407 374M442 374L443 375L442 374z"/>
<path style="fill:#dc4367; stroke:none;" d="M683 374L684 375L683 374M686 374L687 375L686 374z"/>
<path style="fill:#fca648; stroke:none;" d="M355 375L356 376L355 375M410.667 375.333L411.333 375.667L410.667 375.333M438.667 375.333L439.333 375.667L438.667 375.333z"/>
<path style="fill:#bb34a1; stroke:none;" d="M677 375L678 376L677 375z"/>
<path style="fill:#dc4367; stroke:none;" d="M681 375L682 376L681 375z"/>
<path style="fill:#fca648; stroke:none;" d="M707 375L708 376L707 375M143 376L143 379L144 379L143 376M356 376L357 377L356 376M415 376L415 377L418 377L415 376M432 376L432 377L435 377L432 376M493 376L494 377L493 376M251 377L251 394L252 394L251 377M357 377L358 378L357 377M492 377L493 378L492 377z"/>
<path style="fill:#dc4367; stroke:none;" d="M684 377L686 379L684 377M706.333 377.667L706.667 378.333L706.333 377.667z"/>
<path style="fill:#fca648; stroke:none;" d="M358 378L359 379L358 378M491 378L492 379L491 378M490 379L491 380L490 379z"/>
<path style="fill:#bb34a1; stroke:none;" d="M679 379L680 380L679 379z"/>
<path style="fill:#dc4367; stroke:none;" d="M699 379L699 380L704 384L703 379L699 379z"/>
<path style="fill:#fca648; stroke:none;" d="M706.333 379.667L706.667 380.333L706.333 379.667M489 380L490 381L489 380z"/>
<path style="fill:#dc4367; stroke:none;" d="M686 380L687 381L686 380M704 380L705 381L704 380z"/>
<path style="fill:#fca648; stroke:none;" d="M144.333 381.667L144.667 382.333L144.333 381.667M488 381L489 382L488 381z"/>
<path style="fill:#dc4367; stroke:none;" d="M691 381L692 384L693 384L691 381z"/>
<path style="fill:#fca648; stroke:none;" d="M487 382L488 383L487 382z"/>
<path style="fill:#dc4367; stroke:none;" d="M705.333 382.667L705.667 383.333L705.333 382.667z"/>
<path style="fill:#fca648; stroke:none;" d="M486 383L487 384L486 383M485 384L486 385L485 384z"/>
<path style="fill:#dc4367; stroke:none;" d="M687 384L688 385L687 384M689 384L691 386L689 384z"/>
<path style="fill:#fca648; stroke:none;" d="M705.333 384.667L705.667 385.333L705.333 384.667M145.333 385.667L145.667 386.333L145.333 385.667M484 385L485 386L484 385z"/>
<path style="fill:#dc4367; stroke:none;" d="M702 385L705 388L702 385z"/>
<path style="fill:#fca648; stroke:none;" d="M366 386L367 387L366 386M483 386L484 387L483 386M367 387L368 388L367 387M482 387L483 388L482 387z"/>
<path style="fill:#dc4367; stroke:none;" d="M691 387L692 388L691 387z"/>
<path style="fill:#fca648; stroke:none;" d="M283 388L283 398L284 398L283 388M368 388L369 389L368 388M704.333 388.667L704.667 389.333L704.333 388.667M146 389L146 392L147 392L146 389M369 389L370 390L369 389M479 389L480 390L479 389z"/>
<path style="fill:#dc4367; stroke:none;" d="M703 389L703 392L704 392L703 389z"/>
<path style="fill:#fca648; stroke:none;" d="M371 390L372 391L371 390M478 390L479 391L478 390z"/>
<path style="fill:#dc4367; stroke:none;" d="M693 390L695 392L693 390z"/>
<path style="fill:#fca648; stroke:none;" d="M372 391L373 392L372 391M477 391L478 392L477 391z"/>
<path style="fill:#dc4367; stroke:none;" d="M697 391L698 392L697 391z"/>
<path style="fill:#fca648; stroke:none;" d="M373 392L374 393L373 392M475 392L476 393L475 392M703.333 392.667L703.667 393.333L703.333 392.667M147.333 393.667L147.667 394.333L147.333 393.667M375 393L376 394L375 393M474 393L475 394L474 393M566 393L566 398L567 398L566 393z"/>
<path style="fill:#dc4367; stroke:none;" d="M695.333 393.667L695.667 394.333L695.333 393.667M702 393L702 396L703 396L702 393z"/>
<path style="fill:#fca648; stroke:none;" d="M472 394L473 395L472 394M597 394L597 400L598 400L597 394z"/>
<path style="fill:#bb34a1; stroke:none;" d="M691 394L692 395L691 394z"/>
<path style="fill:#dc4367; stroke:none;" d="M699 394L700 395L699 394z"/>
<path style="fill:#fca648; stroke:none;" d="M378 395L379 396L378 395M471 395L472 396L471 395M380 396L381 397L380 396M469 396L470 397L469 396z"/>
<path style="fill:#dc4367; stroke:none;" d="M696 396L696 397L697 399L698 399L696 396z"/>
<path style="fill:#fca648; stroke:none;" d="M702 396L703 397L702 396M148.333 397.667L148.667 398.333L148.333 397.667M381.667 397.333L382.333 397.667L381.667 397.333M467 397L468 398L467 397z"/>
<path style="fill:#dc4367; stroke:none;" d="M701.333 397.667L701.667 398.333L701.333 397.667z"/>
<path style="fill:#fca648; stroke:none;" d="M252 398L252 405L253 405L252 398M383.667 398.333L384.333 398.667L383.667 398.333M465 398L466 399L465 398M385.667 399.333L386.333 399.667L385.667 399.333M463 399L464 400L463 399M701.333 399.667L701.667 400.333L701.333 399.667M149.333 400.667L149.667 401.333L149.333 400.667M284 400L284 406L285 406L284 400M387.667 400.333L388.333 400.667L387.667 400.333M461 400L462 401L461 400z"/>
<path style="fill:#dc4367; stroke:none;" d="M700 400L700 403L701 403L700 400z"/>
<path style="fill:#fca648; stroke:none;" d="M390 401L391 402L390 401M459 401L460 402L459 401M392.667 402.333L393.333 402.667L392.667 402.333M456.667 402.333L457.333 402.667L456.667 402.333M150.333 403.667L150.667 404.333L150.333 403.667M395 403L396 404L395 403M453.667 403.333L454.333 403.667L453.667 403.333M565.333 403.667L565.667 404.333L565.333 403.667M700 403L701 404L700 403M398.667 404.333L399.333 404.667L398.667 404.333M450.667 404.333L451.333 404.667L450.667 404.333z"/>
<path style="fill:#bb34a1; stroke:none;" d="M697 404L698 405L697 404z"/>
<path style="fill:#fca648; stroke:none;" d="M401.667 405.333L402.333 405.667L401.667 405.333M447.667 405.333L448.333 405.667L447.667 405.333M596 405L596 408L597 408L596 405M405 406L405 407L408 407L405 406M442 406L442 407L445 407L442 406M699 406L700 407L699 406M151 407L152 408L151 407M253 407L253 412L254 412L253 407M285 407L285 411L286 411L285 407M410 407L410 408L414 408L410 407M436 407L436 408L440 408L436 407M418 408L418 409L432 409L418 408z"/>
<path style="fill:#bb34a1; stroke:none;" d="M697.333 408.667L697.667 409.333L697.333 408.667z"/>
<path style="fill:#fca648; stroke:none;" d="M564.333 409.667L564.667 410.333L564.333 409.667M698 409L699 410L698 409M152 410L153 411L152 410M286 412L286 415L287 415L286 412M595.333 412.667L595.667 413.333L595.333 412.667M697 412L698 413L697 412M153 413L154 414L153 413M254 413L254 416L255 416L254 413M563.333 413.667L563.667 414.333L563.333 413.667M287 415L287 418L288 418L287 415M696 415L697 416L696 415M154 416L155 417L154 416M562 417L563 418L562 417M594.333 417.667L594.667 418.333L594.333 417.667M155.333 418.667L155.667 419.333L155.333 418.667M255 418L255 421L256 421L255 418M695 418L696 419L695 418M288.333 419.667L288.667 420.333L288.333 419.667M561 420L562 421L561 420M156.333 421.667L156.667 422.333L156.333 421.667M289.333 421.667L289.667 422.333L289.333 421.667M593.333 421.667L593.667 422.333L593.333 421.667M694 421L695 422L694 421M256 422L256 427L254 425L253 425C249.823 427.542 247.646 426.942 245 424L244 424C241.347 427.379 239.141 427.651 235 427L232 431L231 428L225 428L225 429L227 431C220.991 430.443 210.153 429.884 206 435L205 435L203 433L202 436L193 438L171 449L172 452L170 452C181.285 479.106 202.236 503.823 223.039 524.089C279.565 579.156 357.78 610.43 437 606.961C461.187 605.902 485.811 602.153 509 594.975C521.87 590.991 534.153 584.7 547 581L547 580L517.595 546.901L465 500C459.724 498.8 456.553 493.958 451 493.189C399.123 486.007 336.599 507.3 291 472.761C280.158 464.549 270.668 454.069 264.32 442C260.977 435.644 259.699 428.047 256 422M560 422L561 423L560 422M157.333 423.667L157.667 424.333L157.333 423.667M290 423C292.764 438.316 309.356 450.441 323 455.575C353.766 467.152 392.672 462 425 462L425 461C417.749 461 404.911 463.478 399 459L394 460C392.992 454.867 382.845 449.686 378 452L377 449L373 450L373 449L375 449L375 448C370.58 447.519 366.328 445.912 364 442L358 444C347.977 430.507 323.915 439.555 315 428L308 427L292 426L290 423M693 423L694 424L693 423M252 424L253 425L252 424M297.333 424.667L297.667 425.333L297.333 424.667M559 425L560 426L559 425M592 425L593 426L592 425M158.333 426.667L158.667 427.333L158.333 426.667M308 426L309 427L308 426M692 426L693 427L692 426M558 427L559 428L558 427M159.333 428.667L159.667 429.333L159.333 428.667M591 428L592 429L591 428M691 428L692 429L691 428M557 429L558 430L557 429M220.667 430.333L221.333 430.667L220.667 430.333M160 431L161 432L160 431M590 431L591 432L590 431M555 432L556 433L555 432M161.333 433.667L161.667 434.333L161.333 433.667M589 433L590 434L589 433M689 433L690 434L689 433M162.333 435.667L162.667 436.333L162.333 435.667M553 435L554 436L553 435M688 435L689 436L688 435z"/>
<path style="fill:#dc4367; stroke:none;" d="M339 436L340 437L339 436z"/>
<path style="fill:#fca648; stroke:none;" d="M552 436L553 437L552 436M588 436L589 437L588 436M163.333 437.667L163.667 438.333L163.333 437.667M587 438L588 439L587 438M164.333 439.667L164.667 440.333L164.333 439.667z"/>
<path style="fill:#dc4367; stroke:none;" d="M350 440L352 442L350 440z"/>
<path style="fill:#fca648; stroke:none;" d="M586 440L587 441L586 440M686 440L687 441L686 440M165.333 441.667L165.667 442.333L165.333 441.667M358 441L359 442L358 441M548 441L549 442L548 441M547 442L548 443L547 442M585 442L586 443L585 442M685 442L686 443L685 442M166 444L167 445L166 444M584 444L585 445L584 444M684 444L685 445L684 444M167 446L168 447L167 446z"/>
<path style="fill:#dc4367; stroke:none;" d="M364 446L365 447L364 446z"/>
<path style="fill:#fca648; stroke:none;" d="M370 446L371 447L370 446M542 446L543 447L542 446M583 446L584 447L583 446M683 446L684 447L683 446M541 447L542 448L541 447M168 448L169 449L168 448M682 448L683 449L682 448M538 449L539 450L538 449M581 449L582 450L581 449M169.333 450.667L169.667 451.333L169.333 450.667M681 450L682 451L681 450M535 451L536 452L535 451M533 452L534 453L533 452M579 452L580 453L579 452M680 452L681 453L680 452M531 453L532 454L531 453z"/>
<path style="fill:#dc4367; stroke:none;" d="M384 454L385 455L384 454z"/>
<path style="fill:#fca648; stroke:none;" d="M528 454L529 455L528 454M679 454L680 455L679 454M525.667 455.333L526.333 455.667L525.667 455.333M577 455L578 456L577 455M522.667 456.333L523.333 456.667L522.667 456.333M576 456L577 457L576 456z"/>
<path style="fill:#dc4367; stroke:none;" d="M391.333 457.667L391.667 458.333L391.333 457.667z"/>
<path style="fill:#fca648; stroke:none;" d="M519.667 457.333L520.333 457.667L519.667 457.333M575 457L576 458L575 457M677 457L678 458L677 457M514 458L514 459L517 459L514 458M508 459L508 460L512 460L508 459M676 459L677 460L676 459M498 460L498 461L504 461L498 460M441 461L441 462L444 462L441 461M456 461L456 462L487 462L456 461M675 461L676 462L675 461M674 463L675 464L674 463M569 464L570 465L569 464M568 465L569 466L568 465M672 466L673 467L672 466M671 468L672 469L671 468M563 469L564 470L563 469M562 470L563 471L562 470M561 471L562 472L561 471M669 471L670 472L669 471M558 473L559 474L558 473M668 473L669 474L668 473M557 474L558 475L557 474M667 474L668 475L667 474M555 475L556 476L555 475M554 476L555 477L554 476M666 476L667 477L666 476M552 477L553 478L552 477M665 477L666 478L665 477M550 478L551 479L550 478M548 479L549 480L548 479M664 479L665 480L664 479M546.667 480.333L547.333 480.667L546.667 480.333M663 480L664 481L663 480M544.667 481.333L545.333 481.667L544.667 481.333M542 482L543 483L542 482M662 482L663 483L662 482M540 483L541 484L540 483M661 483L662 484L661 483M537.667 484.333L538.333 484.667L537.667 484.333M534.667 485.333L535.333 485.667L534.667 485.333M531.667 486.333L532.333 486.667L531.667 486.333M659 486L660 487L659 486M528.667 487.333L529.333 487.667L528.667 487.333M524.667 488.333L525.333 488.667L524.667 488.333M519 489L519 490L522 490L519 489M657 489L658 490L657 489M513 490L513 491L517 491L513 490M656 490L657 491L656 490M504 491L504 492L510 492L504 491M483 492L483 493L500 493L483 492M654 493L655 494L654 493M653 494L654 495L653 494z"/>
<path style="fill:#dc4367; stroke:none;" d="M456 497L457 498L456 497z"/>
<path style="fill:#fca648; stroke:none;" d="M650 498L651 499L650 498M649 499L650 500L649 499M646 503L647 504L646 503M645 504L646 505L645 504M644 505L645 506L644 505M641 509L642 510L641 509M640 510L641 511L640 510M639 511L640 512L639 511M638 512L639 513L638 512M637 513L638 514L637 513M620 530L621 531L620 530M619 531L620 532L619 531M618 532L619 533L618 532M617 533L618 534L617 533M616 534L617 535L616 534M611 538L612 539L611 538M510 539L511 540L510 539M610 539L611 540L610 539M609 540L610 541L609 540M605 543L606 544L605 543M604 544L605 545L604 544M600 547L601 548L600 547M599 548L600 549L599 548M596 550L597 551L596 550M595 551L596 552L595 551M593 552L594 553L593 552M592 553L593 554L592 553M589 555L590 556L589 555M588 556L589 557L588 556M586 557L587 558L586 557M585 558L586 559L585 558M583 559L584 560L583 559M582 560L583 561L582 560M580 561L581 562L580 561M579 562L580 563L579 562M577 563L578 564L577 563M575 564L576 565L575 564M574 565L575 566L574 565M572 566L573 567L572 566M570.667 567.333L571.333 567.667L570.667 567.333M569 568L570 569L569 568M567 569L568 570L567 569M565 570L566 571L565 570M563 571L564 572L563 571M561.667 572.333L562.333 572.667L561.667 572.333M559.667 573.333L560.333 573.667L559.667 573.333M557.667 574.333L558.333 574.667L557.667 574.333M555.667 575.333L556.333 575.667L555.667 575.333M553.667 576.333L554.333 576.667L553.667 576.333M551.667 577.333L552.333 577.667L551.667 577.333M549.667 578.333L550.333 578.667L549.667 578.333M547.667 579.333L548.333 579.667L547.667 579.333z"/>
</svg>
