<?xml version="1.0" standalone="yes"?>
<svg xmlns="http://www.w3.org/2000/svg" width="2048" height="2048">
<path style="fill:#010101; stroke:none;" d="M0 0L0 979L1 979C1 892.086 20.2773 802.708 45.9745 720C144.027 404.414 401.032 145.161 717 46.9745C800.775 20.9415 890.917 1 979 1L953 0L895 0L695 0L0 0z"/>
<path style="fill:#1196f5; stroke:none;" d="M604 1115L604 1024L860 1024L860 863C860 818.228 858.751 773.472 864.285 729C873.865 652.006 903.793 576.91 956.17 519C1024.66 443.279 1124.01 406.938 1224 400.089C1267.13 397.135 1310.04 400.762 1353 403.911C1385.46 406.291 1417.68 410.964 1450 414.845C1458.35 415.847 1466.68 417.068 1475 418.271C1477.87 418.685 1482.18 418.629 1483.97 421.318C1486.92 425.746 1485 435.847 1485 441L1485 491L1485 681C1434.56 681 1383.28 678.463 1333 681.911C1297.16 684.368 1260.14 691.57 1233.04 717.17C1207.06 741.709 1202.02 776.463 1198.83 810C1196.42 835.371 1198 861.498 1198 887L1198 1024L1470 1024C1461.13 1052.06 1458.7 1085.78 1455 1115L2044 1115C2051.16 1069.24 2049.06 1020.19 2047.04 974C2040.69 829.05 2001.8 685.918 1935.26 557C1880.92 451.728 1808.7 355.855 1722 275.089C1648.86 206.962 1565.08 147.846 1475 104.259C1346.58 42.1245 1207.49 6.27942 1065 0.0393066C816.724 -10.8335 566.494 74.0259 375 232.25C176.885 395.946 42.3038 631.586 8.71836 887C1.3462 943.064 -0.0181682 998.493 0 1055C0.00471391 1069.66 0.954713 1084.53 2.62577 1099.09C3.04773 1102.77 1.75677 1110.64 4.27006 1113.57C6.27269 1115.9 11.2928 1115 14 1115L42 1115L153 1115L604 1115z"/>
<path style="fill:#010101; stroke:none;" d="M1069 0L1069 1C1151.68 1 1237.03 18.5886 1316 42.28C1628.05 135.9 1881.59 379.462 1990.69 686C2023.55 778.311 2047 880.649 2047 979L2048 979L2048 0L1069 0z"/>
<path style="fill:#0673e7; stroke:none;" d="M945 2L946 3L945 2M1102 2L1103 3L1102 2M1180 11L1181 12L1180 11M1204 15L1205 16L1204 15z"/>
<path style="fill:#36e4fd; stroke:none;" d="M827 18L828 19L827 18M1220 18L1221 19L1220 18z"/>
<path style="fill:#0673e7; stroke:none;" d="M1225 19L1226 20L1225 19z"/>
<path style="fill:#36e4fd; stroke:none;" d="M803 23L804 24L803 23z"/>
<path style="fill:#0673e7; stroke:none;" d="M762 33L763 34L762 33M1285 33L1286 34L1285 33z"/>
<path style="fill:#36e4fd; stroke:none;" d="M1333 47L1334 48L1333 47z"/>
<path style="fill:#0673e7; stroke:none;" d="M690 55L691 56L690 55z"/>
<path style="fill:#36e4fd; stroke:none;" d="M1360 56L1361 57L1360 56M1382 64L1383 65L1382 64M1395 69L1396 70L1395 69z"/>
<path style="fill:#0673e7; stroke:none;" d="M647 71L648 72L647 71M1400 71L1401 72L1400 71M642 73L643 74L642 73z"/>
<path style="fill:#36e4fd; stroke:none;" d="M1405 73L1406 74L1405 73M1410 75L1411 76L1410 75M1438 87L1439 88L1438 87M598 92L599 93L598 92M1449 92L1450 93L1449 92M581 100L582 101L581 100z"/>
<path style="fill:#0673e7; stroke:none;" d="M1466 100L1467 101L1466 100M1468 101L1469 102L1468 101M577 102L578 103L577 102M1490 112L1491 113L1490 112z"/>
<path style="fill:#36e4fd; stroke:none;" d="M555 113L556 114L555 113M1492 113L1493 114L1492 113M1509 122L1510 123L1509 122M1527 132L1528 133L1527 132M513 136L514 137L513 136M1559 151L1560 152L1559 151M1567 156L1568 157L1567 156M1578 163L1579 164L1578 163M466 165L467 166L466 165z"/>
<path style="fill:#0673e7; stroke:none;" d="M1581 165L1582 166L1581 165z"/>
<path style="fill:#36e4fd; stroke:none;" d="M463 167L464 168L463 167z"/>
<path style="fill:#0673e7; stroke:none;" d="M1584 167L1585 168L1584 167M460 169L461 170L460 169z"/>
<path style="fill:#36e4fd; stroke:none;" d="M448 177L449 178L448 177M1602 179L1603 180L1602 179z"/>
<path style="fill:#0673e7; stroke:none;" d="M1612 186L1613 187L1612 186z"/>
<path style="fill:#36e4fd; stroke:none;" d="M428 191L429 192L428 191M1619 191L1620 192L1619 191M413 202L414 203L413 202z"/>
<path style="fill:#0673e7; stroke:none;" d="M1634 202L1635 203L1634 202z"/>
<path style="fill:#36e4fd; stroke:none;" d="M409 205L410 206L409 205z"/>
<path style="fill:#0673e7; stroke:none;" d="M1638 205L1639 206L1638 205z"/>
<path style="fill:#36e4fd; stroke:none;" d="M396 215L397 216L396 215z"/>
<path style="fill:#0673e7; stroke:none;" d="M1651 215L1652 216L1651 215M1683 241L1684 242L1683 241M1697 253L1698 254L1697 253M1706 261L1707 262L1706 261z"/>
<path style="fill:#36e4fd; stroke:none;" d="M331 270L332 271L331 270z"/>
<path style="fill:#0673e7; stroke:none;" d="M1717 271L1718 272L1717 271z"/>
<path style="fill:#36e4fd; stroke:none;" d="M314 286L315 287L314 286M1733 286L1734 287L1733 286M313 287L314 288L313 287z"/>
<path style="fill:#0673e7; stroke:none;" d="M1734 287L1735 288L1734 287z"/>
<path style="fill:#36e4fd; stroke:none;" d="M312 288L313 289L312 288z"/>
<path style="fill:#0673e7; stroke:none;" d="M1735 288L1736 289L1735 288z"/>
<path style="fill:#36e4fd; stroke:none;" d="M288 312L289 313L288 312z"/>
<path style="fill:#0673e7; stroke:none;" d="M1759 312L1760 313L1759 312z"/>
<path style="fill:#36e4fd; stroke:none;" d="M287 313L288 314L287 313z"/>
<path style="fill:#0673e7; stroke:none;" d="M1760 313L1761 314L1760 313z"/>
<path style="fill:#36e4fd; stroke:none;" d="M286 314L287 315L286 314M1761 314L1762 315L1761 314z"/>
<path style="fill:#0673e7; stroke:none;" d="M271 330L272 331L271 330M1776 330L1777 331L1776 330z"/>
<path style="fill:#36e4fd; stroke:none;" d="M270 331L271 332L270 331z"/>
<path style="fill:#0673e7; stroke:none;" d="M261 341L262 342L261 341M253 350L254 351L253 350M1794 350L1795 351L1794 350z"/>
<path style="fill:#36e4fd; stroke:none;" d="M246 358L247 359L246 358z"/>
<path style="fill:#0673e7; stroke:none;" d="M241 364L242 365L241 364z"/>
<path style="fill:#36e4fd; stroke:none;" d="M235 371L236 372L235 371M218 392L219 393L218 392z"/>
<path style="fill:#0673e7; stroke:none;" d="M215 396L216 397L215 396M1832 396L1833 397L1832 396z"/>
<path style="fill:#36e4fd; stroke:none;" d="M1238 399L1238 400L1258 400L1238 399z"/>
<path style="fill:#ffffff; stroke:none;" d="M860 1024L604 1024L604 1239L604 1292L605.603 1309.97L624 1311L672 1311L860 1311L860 1851L860 1986L860 2020C860 2023.53 858.881 2029.63 861.603 2032.4C865.413 2036.28 876.81 2036.06 882 2036.92C901.586 2040.16 921.326 2041.87 941 2044.28C1000.62 2051.61 1063.35 2049.8 1123 2043.83C1147.79 2041.35 1173.36 2034.13 1198 2033L1198 1311L1364 1311L1406 1311L1422.26 1309.97L1426.42 1291L1435.13 1237L1458.42 1092L1469 1024L1198 1024L1198 837C1198 790.123 1202.68 740.062 1243 709.236C1277.94 682.521 1324 681 1366 681L1485 681L1485 420C1443.88 412.339 1401.57 408.853 1360 404.83C1228.87 392.141 1089.93 400.691 985 490.428C964.423 508.025 946.903 528.231 930.884 550C910.588 577.582 895.537 609.759 884.344 642C861.162 708.776 860 778.202 860 848L860 1024z"/>
<path style="fill:#36e4fd; stroke:none;" d="M1261 399L1261 400L1285 400L1261 399M1220 400L1220 401L1225 401L1220 400M1301 400L1301 401L1308 401L1301 400M1208 401L1208 402L1212 402L1208 401M1319 401L1319 402L1325 402L1319 401M1198 402L1198 403L1202 403L1198 402M1334 402L1334 403L1339 403L1334 402M1190 403L1190 404L1193 404L1190 403M1346 403L1346 404L1350 404L1346 403M1183.67 404.333L1184.33 404.667L1183.67 404.333M1357 404L1357 405L1361 405L1357 404M1176 405L1176 406L1179 406L1176 405M1368 405L1368 406L1372 406L1368 405M1839 405L1840 406L1839 405M1170 406L1170 407L1173 407L1170 406M1378 406L1378 407L1382 407L1378 406M1165.67 407.333L1166.33 407.667L1165.67 407.333M1387 407L1387 408L1391 408L1387 407M1160 408L1161 409L1160 408M1397 408L1397 409L1400 409L1397 408z"/>
<path style="fill:#0673e7; stroke:none;" d="M205 409L206 410L205 409z"/>
<path style="fill:#36e4fd; stroke:none;" d="M1155 409L1156 410L1155 409M1405 409L1405 410L1409 410L1405 409M1150.67 410.333L1151.33 410.667L1150.67 410.333M1414 410L1414 411L1417 411L1414 410M1145.67 411.333L1146.33 411.667L1145.67 411.333M1422 411L1422 412L1425 412L1422 411M1141.67 412.333L1142.33 412.667L1141.67 412.333M1430 412L1430 413L1433 413L1430 412z"/>
<path style="fill:#0673e7; stroke:none;" d="M202 413L203 414L202 413z"/>
<path style="fill:#36e4fd; stroke:none;" d="M1137.67 413.333L1138.33 413.667L1137.67 413.333M1438 413L1438 414L1441 414L1438 413z"/>
<path style="fill:#0673e7; stroke:none;" d="M1845 413L1846 414L1845 413z"/>
<path style="fill:#36e4fd; stroke:none;" d="M1133.67 414.333L1134.33 414.667L1133.67 414.333M1445 414L1445 415L1448 415L1445 414M1130 415L1131 416L1130 415M1453 415L1453 416L1456 416L1453 415M1126 416L1127 417L1126 416M1460 416L1460 417L1463 417L1460 416M1123 417L1124 418L1123 417M1467 417L1467 418L1470 418L1467 417M1119 418L1120 419L1119 418M1475.67 418.333L1476.33 418.667L1475.67 418.333M1116 419L1117 420L1116 419M1482.67 419.333L1483.33 419.667L1482.67 419.333M1113 420L1114 421L1113 420M1109.67 421.333L1110.33 421.667L1109.67 421.333M1106 422L1107 423L1106 422M1103.67 423.333L1104.33 423.667L1103.67 423.333z"/>
<path style="fill:#0673e7; stroke:none;" d="M194 424L195 425L194 424z"/>
<path style="fill:#36e4fd; stroke:none;" d="M1101 424L1102 425L1101 424M1098 425L1099 426L1098 425M1095 426L1096 427L1095 426M1092 427L1093 428L1092 427M191 428L192 429L191 428M1090 428L1091 429L1090 428M1856 428L1857 429L1856 428M1087 429L1088 430L1087 429M1085 430L1086 431L1085 430M1082 431L1083 432L1082 431M1080 432L1081 433L1080 432M1077 433L1078 434L1077 433M1075 434L1076 435L1075 434M1073 435L1074 436L1073 435M1070 436L1071 437L1070 436M1068 437L1069 438L1068 437z"/>
<path style="fill:#0673e7; stroke:none;" d="M184 438L185 439L184 438z"/>
<path style="fill:#36e4fd; stroke:none;" d="M1066 438L1067 439L1066 438M1064 439L1065 440L1064 439M1062 440L1063 441L1062 440M1060 441L1061 442L1060 441M1058 442L1059 443L1058 442M1056 443L1057 444L1056 443M1052 445L1053 446L1052 445M1050 446L1051 447L1050 446M1048 447L1049 448L1048 447M177 448L178 449L177 448M1046 448L1047 449L1046 448M1870 448L1871 449L1870 448M1044 449L1045 450L1044 449z"/>
<path style="fill:#0673e7; stroke:none;" d="M175 451L176 452L175 451z"/>
<path style="fill:#36e4fd; stroke:none;" d="M1039 452L1040 453L1039 452M1037 453L1038 454L1037 453z"/>
<path style="fill:#0673e7; stroke:none;" d="M173 454L174 455L173 454z"/>
<path style="fill:#36e4fd; stroke:none;" d="M1035 454L1036 455L1035 454M1032 456L1033 457L1032 456z"/>
<path style="fill:#0673e7; stroke:none;" d="M171 457L172 458L171 457z"/>
<path style="fill:#36e4fd; stroke:none;" d="M1030 457L1031 458L1030 457M1027 459L1028 460L1027 459z"/>
<path style="fill:#0673e7; stroke:none;" d="M169 460L170 461L169 460z"/>
<path style="fill:#36e4fd; stroke:none;" d="M1024 461L1025 462L1024 461M1022 462L1023 463L1022 462z"/>
<path style="fill:#0673e7; stroke:none;" d="M167 463L168 464L167 463z"/>
<path style="fill:#36e4fd; stroke:none;" d="M1880 463L1881 464L1880 463M1019 464L1020 465L1019 464M1018 465L1019 466L1018 465M165 466L166 467L165 466M1016 466L1017 467L1016 466M1882 466L1883 467L1882 466M1015 467L1016 468L1015 467M1013 468L1014 469L1013 468M163 469L164 470L163 469M1012 469L1013 470L1012 469M1009 471L1010 472L1009 471M1006 473L1007 474L1006 473M1005 474L1006 475L1005 474M1002 476L1003 477L1002 476M1001 477L1002 478L1001 477M998 479L999 480L998 479M997 480L998 481L997 480M993 483L994 484L993 483M992 484L993 485L992 484M987 488L988 489L987 488M986 489L987 490L986 489M980 494L981 495L980 494M979 495L980 496L979 495M978 496L979 497L978 496M977 497L978 498L977 497z"/>
<path style="fill:#0673e7; stroke:none;" d="M139 508L140 509L139 508z"/>
<path style="fill:#36e4fd; stroke:none;" d="M136 513L137 514L136 513M1911 513L1912 514L1911 513M957 517L958 518L957 517M956 518L957 519L956 518M955 519L956 520L955 519M954 520L955 521L954 520M1915 520L1916 521L1915 520z"/>
<path style="fill:#0673e7; stroke:none;" d="M131 522L132 523L131 522z"/>
<path style="fill:#36e4fd; stroke:none;" d="M949 526L950 527L949 526M948 527L949 528L948 527M127 529L128 530L127 529z"/>
<path style="fill:#0673e7; stroke:none;" d="M1920 529L1921 530L1920 529z"/>
<path style="fill:#36e4fd; stroke:none;" d="M944 532L945 533L944 532M943 533L944 534L943 533M940 537L941 538L940 537M122 538L123 539L122 538M939 538L940 539L939 538M1925 538L1926 539L1925 538z"/>
<path style="fill:#0673e7; stroke:none;" d="M121 540L122 541L121 540M1926 540L1927 541L1926 540z"/>
<path style="fill:#36e4fd; stroke:none;" d="M937 541L938 542L937 541M936 542L937 543L936 542M934 545L935 546L934 545M933 546L934 547L933 546M931 549L932 550L931 549M928 553L929 554L928 553M113 555L114 556L113 555M1934 555L1935 556L1934 555M926 556L927 557L926 556z"/>
<path style="fill:#0673e7; stroke:none;" d="M1935 557L1936 558L1935 557z"/>
<path style="fill:#36e4fd; stroke:none;" d="M924 559L925 560L924 559z"/>
<path style="fill:#0673e7; stroke:none;" d="M1936 559L1937 560L1936 559M1937 561L1938 562L1937 561z"/>
<path style="fill:#36e4fd; stroke:none;" d="M922 562L923 563L922 562M921 564L922 565L921 564M919 567L920 568L919 567M917 570L918 571L917 570M916 572L917 573L916 572M914 575L915 576L914 575z"/>
<path style="fill:#0673e7; stroke:none;" d="M1944 575L1945 576L1944 575z"/>
<path style="fill:#36e4fd; stroke:none;" d="M913 577L914 578L913 577z"/>
<path style="fill:#0673e7; stroke:none;" d="M1945 577L1946 578L1945 577z"/>
<path style="fill:#36e4fd; stroke:none;" d="M912 579L913 580L912 579z"/>
<path style="fill:#0673e7; stroke:none;" d="M1946 579L1947 580L1946 579M100 581L101 582L100 581z"/>
<path style="fill:#36e4fd; stroke:none;" d="M1947 581L1948 582L1947 581M909 584L910 585L909 584M908 586L909 587L908 586M907 588L908 589L907 588M906 590L907 591L906 590M905 592L906 593L905 592M904 594L905 595L904 594M903 596L904 597L903 596M92 598L93 599L92 598M902 598L903 599L902 598M1955 598L1956 599L1955 598M901 600L902 601L901 600M900 602L901 603L900 602M899 604L900 605L899 604M898 606L899 607L898 606M897 608L898 609L897 608M1960 609L1961 610L1960 609M895 613L896 614L895 613M894 615L895 616L894 615M892 620L893 621L892 620M890 625L891 626L890 625M888 630L889 631L888 630M887 633L888 634L887 633M886 636L887 637L886 636M75 637L76 638L75 637M885 638L886 639L885 638M884 641L885 642L884 641M73 642L74 643L73 642M1974 642L1975 643L1974 642M883 644L884 645L883 644z"/>
<path style="fill:#0673e7; stroke:none;" d="M71 647L72 648L71 647z"/>
<path style="fill:#36e4fd; stroke:none;" d="M882 647L883 648L882 647z"/>
<path style="fill:#0673e7; stroke:none;" d="M1976 647L1977 648L1976 647z"/>
<path style="fill:#36e4fd; stroke:none;" d="M881 650L882 651L881 650M69 652L70 653L69 652M1978 652L1979 653L1978 652M880.333 653.667L880.667 654.333L880.333 653.667M879 657L880 658L879 657M878 660L879 661L878 660M877 664L878 665L877 664M876 667L877 668L876 667M875 671L876 672L875 671M874 675L875 676L874 675z"/>
<path style="fill:#0673e7; stroke:none;" d="M60 676L61 677L60 676z"/>
<path style="fill:#36e4fd; stroke:none;" d="M873 679L874 680L873 679M1331 681L1331 682L1337 682L1331 681M1319 682L1319 683L1323 683L1319 682M872.333 683.667L872.667 684.333L872.333 683.667M1311 683L1311 684L1314 684L1311 683M1305.67 684.333L1306.33 684.667L1305.67 684.333M1299.67 685.333L1300.33 685.667L1299.67 685.333M1295 686L1296 687L1295 686M871.333 687.667L871.667 688.333L871.333 687.667M1290 687L1291 688L1290 687M1286.67 688.333L1287.33 688.667L1286.67 688.333M1283 689L1284 690L1283 689z"/>
<path style="fill:#0673e7; stroke:none;" d="M55 690L56 691L55 690z"/>
<path style="fill:#36e4fd; stroke:none;" d="M1280 690L1281 691L1280 690M1992 690L1993 691L1992 690M1277 691L1278 692L1277 691M870.333 692.667L870.667 693.333L870.333 692.667M1274 692L1275 693L1274 692M1271 693L1272 694L1271 693z"/>
<path style="fill:#0673e7; stroke:none;" d="M1993 693L1994 694L1993 693z"/>
<path style="fill:#36e4fd; stroke:none;" d="M1266 695L1267 696L1266 695M1264 696L1265 697L1264 696M869.333 697.667L869.667 698.333L869.333 697.667M1262 697L1263 698L1262 697M1260 698L1261 699L1260 698M1258 699L1259 700L1258 699M1256 700L1257 701L1256 700M1254 701L1255 702L1254 701M868.333 702.667L868.667 703.333L868.333 702.667M1249 704L1250 705L1249 704M1246 706L1247 707L1246 706M867.333 708.667L867.667 709.333L867.333 708.667M1243 708L1244 709L1243 708z"/>
<path style="fill:#0673e7; stroke:none;" d="M1998 708L1999 709L1998 708z"/>
<path style="fill:#36e4fd; stroke:none;" d="M1242 709L1243 710L1242 709M1238 712L1239 713L1238 712M1237 713L1238 714L1237 713z"/>
<path style="fill:#0673e7; stroke:none;" d="M47 714L48 715L47 714z"/>
<path style="fill:#36e4fd; stroke:none;" d="M866.333 714.667L866.667 715.333L866.333 714.667M1236 714L1237 715L1236 714M2000 714L2001 715L2000 714M865 720L865 723L866 723L865 720M1228 722L1229 723L1228 722M1227 723L1228 724L1227 723M864 727L864 730L865 730L864 727z"/>
<path style="fill:#0673e7; stroke:none;" d="M2004 727L2005 728L2004 727z"/>
<path style="fill:#36e4fd; stroke:none;" d="M1223 728L1224 729L1223 728M1220 732L1221 733L1220 732M1218 735L1219 736L1218 735M863.333 736.667L863.667 737.333L863.333 736.667z"/>
<path style="fill:#0673e7; stroke:none;" d="M40 737L41 738L40 737z"/>
<path style="fill:#36e4fd; stroke:none;" d="M1217 737L1218 738L1217 737z"/>
<path style="fill:#0673e7; stroke:none;" d="M2007 737L2008 738L2007 737z"/>
<path style="fill:#36e4fd; stroke:none;" d="M1214 742L1215 743L1214 742M1213 744L1214 745L1213 744z"/>
<path style="fill:#0673e7; stroke:none;" d="M2009 744L2010 745L2009 744z"/>
<path style="fill:#36e4fd; stroke:none;" d="M862 745L862 749L863 749L862 745M1212 746L1213 747L1212 746M1211 748L1212 749L1211 748M1210 751L1211 752L1210 751z"/>
<path style="fill:#0673e7; stroke:none;" d="M2011 751L2012 752L2011 751z"/>
<path style="fill:#36e4fd; stroke:none;" d="M1209 753L1210 754L1209 753M1208 756L1209 757L1208 756M861 757L861 761L862 761L861 757M1207 758L1208 759L1207 758M1206 761L1207 762L1206 761M2014 762L2015 763L2014 762M1205 765L1206 766L1205 765M1204 768L1205 769L1204 768M1203 772L1204 773L1203 772M860 774L860 783L861 783L860 774M1202.33 776.667L1202.67 777.333L1202.33 776.667M1201.33 781.667L1201.67 782.333L1201.33 781.667z"/>
<path style="fill:#0673e7; stroke:none;" d="M2020 786L2021 787L2020 786z"/>
<path style="fill:#36e4fd; stroke:none;" d="M1200 787L1200 790L1201 790L1200 787z"/>
<path style="fill:#0673e7; stroke:none;" d="M2021 790L2022 791L2021 790z"/>
<path style="fill:#36e4fd; stroke:none;" d="M1199 795L1199 798L1200 798L1199 795M23 803L24 804L23 803M1198 807L1198 813L1199 813L1198 807M20 817L21 818L20 817M2027 817L2028 818L2027 817M19 822L20 823L19 822M2028 822L2029 823L2028 822M18 827L19 828L18 827M2029 827L2030 828L2029 827z"/>
<path style="fill:#0673e7; stroke:none;" d="M15 843L16 844L15 843z"/>
<path style="fill:#36e4fd; stroke:none;" d="M2032 843L2033 844L2032 843z"/>
<path style="fill:#0673e7; stroke:none;" d="M2035 861L2036 862L2035 861M11 867L12 868L11 867M2036 867L2037 868L2036 867M2037 874L2038 875L2037 874M8 888L9 889L8 888M2039 888L2040 889L2039 888M2040 896L2041 897L2040 896M6 904L7 905L6 904M2041 904L2042 905L2041 904M3 933L4 934L3 933M2044 933L2045 934L2044 933z"/>
<path style="fill:#36e4fd; stroke:none;" d="M2045 945L2046 946L2045 945z"/>
<path style="fill:#0673e7; stroke:none;" d="M1 960L2 961L1 960M2046 960L2047 961L2046 960M0 979L1 980L0 979z"/>
<path style="fill:#36e4fd; stroke:none;" d="M1469 1024L1470 1025L1469 1024M1468.33 1029.67L1468.67 1030.33L1468.33 1029.67M1467.33 1035.67L1467.67 1036.33L1467.33 1035.67M1466 1042L1467 1043L1466 1042M1465 1048L1466 1049L1465 1048M1464.33 1054.67L1464.67 1055.33L1464.33 1054.67M1463.33 1060.67L1463.67 1061.33L1463.33 1060.67z"/>
<path style="fill:#0673e7; stroke:none;" d="M0 1064L1 1065L0 1064z"/>
<path style="fill:#36e4fd; stroke:none;" d="M1462.33 1066.67L1462.67 1067.33L1462.33 1066.67z"/>
<path style="fill:#0673e7; stroke:none;" d="M2047.33 1067.67L2047.67 1068.33L2047.33 1067.67M0 1068L1 1069L0 1068z"/>
<path style="fill:#010101; stroke:none;" d="M0 1069L0 2048L986 2048L986 2047C945.561 2047 905.995 2038.99 866 2034.1C860.278 2033.4 856.59 2037.97 851 2037.34C828.552 2034.81 805.875 2028.34 784 2022.87C730.371 2009.47 677.795 1991.65 627 1969.85C393.03 1869.43 194.811 1680.41 90.8611 1447C54.5004 1365.35 29.2717 1280.9 13.4244 1193C8.56817 1166.07 4.96867 1138.29 3.08951 1111C2.25548 1098.89 4.62508 1080.02 0 1069M2047 1069C2047 1156.18 2027.81 1246.02 2002.03 1329C1916.88 1603.04 1711.94 1836.51 1451 1956.31C1395.88 1981.61 1339.44 2002.18 1281 2018.42C1254.03 2025.92 1224.94 2034.7 1197 2037.37C1192.39 2037.81 1188.64 2035.06 1184 2035.61C1146.67 2040.01 1109.69 2047 1072 2047L1072 2048L2048 2048L2048 1353L2048 1153L2048 1095L2047 1069z"/>
<path style="fill:#36e4fd; stroke:none;" d="M1461 1073L1462 1074L1461 1073M1460.33 1079.67L1460.67 1080.33L1460.33 1079.67M1459.33 1085.67L1459.67 1086.33L1459.33 1085.67M2046 1087L2047 1088L2046 1087z"/>
<path style="fill:#0673e7; stroke:none;" d="M2045 1089L2046 1090L2045 1089z"/>
<path style="fill:#36e4fd; stroke:none;" d="M1458.33 1091.67L1458.67 1092.33L1458.33 1091.67z"/>
<path style="fill:#0673e7; stroke:none;" d="M2045 1091L2046 1092L2045 1091M2045 1093L2046 1094L2045 1093M2 1095L3 1096L2 1095M2045.33 1095.67L2045.67 1096.33L2045.33 1095.67M2 1098L2 1102L3 1102L2 1098z"/>
<path style="fill:#36e4fd; stroke:none;" d="M1457 1098L1458 1099L1457 1098z"/>
<path style="fill:#0673e7; stroke:none;" d="M2045 1098L2046 1099L2045 1098M2044 1103L2045 1104L2044 1103z"/>
<path style="fill:#36e4fd; stroke:none;" d="M1456 1104L1457 1105L1456 1104z"/>
<path style="fill:#0673e7; stroke:none;" d="M3.33333 1108.67L3.66667 1109.33L3.33333 1108.67z"/>
<path style="fill:#36e4fd; stroke:none;" d="M1455.33 1110.67L1455.67 1111.33L1455.33 1110.67z"/>
<path style="fill:#0673e7; stroke:none;" d="M2044 1110L2045 1111L2044 1110M3 1111L4 1112L3 1111M2044 1112L2044 1115L2045 1115L2044 1112M3.33333 1113.67L3.66667 1114.33L3.33333 1113.67M4 1115C5.68544 1186.9 24.738 1261.66 45.9745 1330C125.671 1586.45 309.538 1806.48 547 1931.78C620.871 1970.76 698.874 2001.85 780 2022.13C798.903 2026.85 817.879 2031.24 837 2035C842.465 2036.07 852.927 2040 857.812 2036.26C861.374 2033.53 860.006 2027.9 860 2024L860 1992L860 1858L860 1311L604 1311L604 1115L4 1115M1455 1115C1451.19 1163.24 1439.83 1212.24 1431.92 1260C1429.16 1276.67 1424.72 1294.12 1424 1311L1199 1311L1198 2033L1189 2034C1193.07 2040.97 1204.55 2036.29 1211 2035C1232.14 2030.77 1253.11 2025.92 1274 2020.63C1364.92 1997.6 1452.96 1960.61 1534 1913.58C1755.47 1785.04 1925.95 1574.84 2002.03 1330C2016 1285.02 2026.65 1239.44 2034.44 1193C2038.71 1167.48 2043.66 1140.92 2044 1115L1455 1115z"/>
<path style="fill:#36e4fd; stroke:none;" d="M1454.33 1116.67L1454.67 1117.33L1454.33 1116.67z"/>
<path style="fill:#1196f5; stroke:none;" d="M1454.33 1118.67L1454.67 1119.33L1454.33 1118.67M4 1120L5 1121L4 1120M2043 1121L2044 1122L2043 1121z"/>
<path style="fill:#36e4fd; stroke:none;" d="M1453.33 1122.67L1453.67 1123.33L1453.33 1122.67z"/>
<path style="fill:#1196f5; stroke:none;" d="M4.33333 1123.67L4.66667 1124.33L4.33333 1123.67M2043 1123L2044 1124L2043 1123M1453 1124L1453 1127L1454 1127L1453 1124z"/>
<path style="fill:#36e4fd; stroke:none;" d="M4 1125L5 1126L4 1125M1452 1129L1453 1130L1452 1129z"/>
<path style="fill:#1196f5; stroke:none;" d="M5 1130L6 1131L5 1130M1452 1130L1452 1133L1453 1133L1452 1130M2042 1130L2043 1131L2042 1130M2042 1134L2043 1135L2042 1134z"/>
<path style="fill:#36e4fd; stroke:none;" d="M1451 1135L1452 1136L1451 1135z"/>
<path style="fill:#1196f5; stroke:none;" d="M1451 1136L1451 1139L1452 1139L1451 1136M6 1137L7 1138L6 1137M2041 1138L2042 1139L2041 1138M6 1140L7 1141L6 1140z"/>
<path style="fill:#36e4fd; stroke:none;" d="M1450.33 1141.67L1450.67 1142.33L1450.33 1141.67z"/>
<path style="fill:#1196f5; stroke:none;" d="M6 1142L7 1143L6 1142M1450.33 1143.67L1450.67 1144.33L1450.33 1143.67M2041 1143L2042 1144L2041 1143z"/>
<path style="fill:#36e4fd; stroke:none;" d="M1449.33 1147.67L1449.67 1148.33L1449.33 1147.67z"/>
<path style="fill:#1196f5; stroke:none;" d="M1449.33 1149.67L1449.67 1150.33L1449.33 1149.67M2040 1151L2041 1152L2040 1151z"/>
<path style="fill:#36e4fd; stroke:none;" d="M1448 1154L1449 1155L1448 1154z"/>
<path style="fill:#1196f5; stroke:none;" d="M1448 1155L1448 1158L1449 1158L1448 1155M8 1159L9 1160L8 1159M2039 1159L2040 1160L2039 1159z"/>
<path style="fill:#36e4fd; stroke:none;" d="M1447 1160L1448 1161L1447 1160z"/>
<path style="fill:#1196f5; stroke:none;" d="M1447 1161L1447 1164L1448 1164L1447 1161z"/>
<path style="fill:#36e4fd; stroke:none;" d="M1446.33 1166.67L1446.67 1167.33L1446.33 1166.67z"/>
<path style="fill:#1196f5; stroke:none;" d="M2038 1166L2039 1167L2038 1166M1446.33 1168.67L1446.67 1169.33L1446.33 1168.67z"/>
<path style="fill:#36e4fd; stroke:none;" d="M1445.33 1172.67L1445.67 1173.33L1445.33 1172.67z"/>
<path style="fill:#1196f5; stroke:none;" d="M10 1173L11 1174L10 1173M2037 1173L2038 1174L2037 1173M1445.33 1174.67L1445.67 1175.33L1445.33 1174.67z"/>
<path style="fill:#36e4fd; stroke:none;" d="M1444.33 1178.67L1444.67 1179.33L1444.33 1178.67z"/>
<path style="fill:#1196f5; stroke:none;" d="M11 1180L12 1181L11 1180M1444.33 1180.67L1444.67 1181.33L1444.33 1180.67M2036 1180L2037 1181L2036 1180z"/>
<path style="fill:#36e4fd; stroke:none;" d="M1443 1185L1444 1186L1443 1185z"/>
<path style="fill:#1196f5; stroke:none;" d="M1443 1186L1443 1189L1444 1189L1443 1186M12 1187L13 1188L12 1187M2035 1187L2036 1188L2035 1187z"/>
<path style="fill:#36e4fd; stroke:none;" d="M1442 1191L1443 1192L1442 1191z"/>
<path style="fill:#1196f5; stroke:none;" d="M1442 1192L1442 1195L1443 1195L1442 1192M2034 1192L2035 1193L2034 1192z"/>
<path style="fill:#36e4fd; stroke:none;" d="M2034 1193L2035 1194L2034 1193M1441.33 1197.67L1441.67 1198.33L1441.33 1197.67z"/>
<path style="fill:#1196f5; stroke:none;" d="M1441.33 1199.67L1441.67 1200.33L1441.33 1199.67z"/>
<path style="fill:#36e4fd; stroke:none;" d="M1440.33 1203.67L1440.67 1204.33L1440.33 1203.67z"/>
<path style="fill:#1196f5; stroke:none;" d="M1440.33 1205.67L1440.67 1206.33L1440.33 1205.67M16 1210L17 1211L16 1210z"/>
<path style="fill:#36e4fd; stroke:none;" d="M1439 1210L1440 1211L1439 1210z"/>
<path style="fill:#1196f5; stroke:none;" d="M1439.33 1211.67L1439.67 1212.33L1439.33 1211.67z"/>
<path style="fill:#36e4fd; stroke:none;" d="M1438 1216L1439 1217L1438 1216z"/>
<path style="fill:#1196f5; stroke:none;" d="M1438.33 1217.67L1438.67 1218.33L1438.33 1217.67z"/>
<path style="fill:#36e4fd; stroke:none;" d="M1437.33 1222.67L1437.67 1223.33L1437.33 1222.67z"/>
<path style="fill:#1196f5; stroke:none;" d="M1437.33 1224.67L1437.67 1225.33L1437.33 1224.67z"/>
<path style="fill:#36e4fd; stroke:none;" d="M1436.33 1228.67L1436.67 1229.33L1436.33 1228.67z"/>
<path style="fill:#1196f5; stroke:none;" d="M1436.33 1230.67L1436.67 1231.33L1436.33 1230.67z"/>
<path style="fill:#36e4fd; stroke:none;" d="M1435.33 1234.67L1435.67 1235.33L1435.33 1234.67z"/>
<path style="fill:#1196f5; stroke:none;" d="M1435.33 1236.67L1435.67 1237.33L1435.33 1236.67z"/>
<path style="fill:#36e4fd; stroke:none;" d="M1434 1241L1435 1242L1434 1241z"/>
<path style="fill:#1196f5; stroke:none;" d="M1434.33 1242.67L1434.67 1243.33L1434.33 1242.67z"/>
<path style="fill:#36e4fd; stroke:none;" d="M1433 1247L1434 1248L1433 1247z"/>
<path style="fill:#1196f5; stroke:none;" d="M1433 1248L1433 1251L1434 1251L1433 1248z"/>
<path style="fill:#36e4fd; stroke:none;" d="M1432.33 1253.67L1432.67 1254.33L1432.33 1253.67z"/>
<path style="fill:#1196f5; stroke:none;" d="M1432.33 1255.67L1432.67 1256.33L1432.33 1255.67z"/>
<path style="fill:#36e4fd; stroke:none;" d="M1431.33 1259.67L1431.67 1260.33L1431.33 1259.67z"/>
<path style="fill:#1196f5; stroke:none;" d="M1431.33 1261.67L1431.67 1262.33L1431.33 1261.67z"/>
<path style="fill:#36e4fd; stroke:none;" d="M1430.33 1265.67L1430.67 1266.33L1430.33 1265.67z"/>
<path style="fill:#1196f5; stroke:none;" d="M1430.33 1267.67L1430.67 1268.33L1430.33 1267.67z"/>
<path style="fill:#36e4fd; stroke:none;" d="M1429 1272L1430 1273L1429 1272z"/>
<path style="fill:#1196f5; stroke:none;" d="M1429.33 1273.67L1429.67 1274.33L1429.33 1273.67z"/>
<path style="fill:#36e4fd; stroke:none;" d="M1428.33 1278.67L1428.67 1279.33L1428.33 1278.67z"/>
<path style="fill:#1196f5; stroke:none;" d="M1428.33 1280.67L1428.67 1281.33L1428.33 1280.67z"/>
<path style="fill:#36e4fd; stroke:none;" d="M1427.33 1284.67L1427.67 1285.33L1427.33 1284.67z"/>
<path style="fill:#1196f5; stroke:none;" d="M1427.33 1286.67L1427.67 1287.33L1427.33 1286.67z"/>
<path style="fill:#36e4fd; stroke:none;" d="M1426.33 1290.67L1426.67 1291.33L1426.33 1290.67z"/>
<path style="fill:#1196f5; stroke:none;" d="M1426.33 1292.67L1426.67 1293.33L1426.33 1292.67z"/>
<path style="fill:#36e4fd; stroke:none;" d="M1425 1297L1426 1298L1425 1297z"/>
<path style="fill:#1196f5; stroke:none;" d="M1425.33 1298.67L1425.67 1299.33L1425.33 1298.67z"/>
<path style="fill:#36e4fd; stroke:none;" d="M1424 1303L1425 1304L1424 1303z"/>
<path style="fill:#1196f5; stroke:none;" d="M1424.33 1304.67L1424.67 1305.33L1424.33 1304.67z"/>
<path style="fill:#36e4fd; stroke:none;" d="M1423 1309L1424 1310L1423 1309M604 1310L605 1311L604 1310z"/>
<path style="fill:#1196f5; stroke:none;" d="M1423 1310L1424 1311L1423 1310M1198 1311L1198 1451L1199 1451L1199 1353C1199 1341.06 1202.61 1321.98 1198 1311z"/>
<path style="fill:#36e4fd; stroke:none;" d="M860 2032L861 2033L860 2032M1192 2033L1193 2034L1192 2033z"/>
<path style="fill:#1196f5; stroke:none;" d="M1193.67 2033.33L1194.33 2033.67L1193.67 2033.33z"/>
</svg>
